<svg width="44" height="44" viewBox="0 0 44 44" fill="none" xmlns="http://www.w3.org/2000/svg">
<rect width="44" height="44" rx="22" fill="#EAEDFE"/>
<path d="M20.0375 17.0938L19.5314 18.4616C18.8677 20.2553 18.5358 21.1521 17.8816 21.8064C17.2273 22.4606 16.3305 22.7924 14.5368 23.4562L13.1689 23.9623L14.5368 24.4685C16.3305 25.1323 17.2273 25.4641 17.8816 26.1183C18.5358 26.7726 18.8677 27.6694 19.5314 29.463L20.0375 30.8309L20.5437 29.463C21.2075 27.6694 21.5393 26.7726 22.1935 26.1183C22.8478 25.4641 23.7446 25.1323 25.5382 24.4685L26.9061 23.9623L25.5382 23.4562C23.7446 22.7924 22.8478 22.4606 22.1935 21.8064C21.5393 21.1521 21.2075 20.2553 20.5437 18.4616L20.0375 17.0938Z" stroke="#233FAD" stroke-width="1.76621" stroke-linejoin="round"/>
<path d="M27.8874 13.168L27.6705 13.7542C27.386 14.5229 27.2438 14.9073 26.9634 15.1877C26.6831 15.468 26.2987 15.6103 25.53 15.8947L24.9437 16.1117L25.53 16.3286C26.2987 16.613 26.6831 16.7553 26.9634 17.0356C27.2438 17.316 27.386 17.7004 27.6705 18.4691L27.8874 19.0553L28.1044 18.4691C28.3888 17.7004 28.531 17.316 28.8114 17.0356C29.0918 16.7553 29.4761 16.613 30.2448 16.3286L30.8311 16.1117L30.2448 15.8947C29.4761 15.6103 29.0918 15.468 28.8114 15.1877C28.531 14.9073 28.3888 14.5229 28.1044 13.7542L27.8874 13.168Z" stroke="#233FAD" stroke-width="1.32466" stroke-linejoin="round"/>
</svg>
