<svg width="20" height="20" viewBox="0 0 20 20" fill="none" xmlns="http://www.w3.org/2000/svg">
<path d="M8.03754 5.09375L7.53138 6.46163C6.86766 8.25527 6.5358 9.15211 5.88157 9.80639C5.22734 10.4606 4.3305 10.7924 2.53683 11.4562L1.16895 11.9623L2.53683 12.4685C4.3305 13.1323 5.22734 13.4641 5.88157 14.1183C6.5358 14.7726 6.86766 15.6694 7.53138 17.463L8.03754 18.8309L8.54366 17.463C9.20746 15.6694 9.53931 14.7726 10.1935 14.1183C10.8478 13.4641 11.7446 13.1323 13.5382 12.4685L14.9061 11.9623L13.5382 11.4562C11.7446 10.7924 10.8478 10.4606 10.1935 9.80639C9.53931 9.15211 9.20746 8.25527 8.54366 6.46163L8.03754 5.09375Z" stroke="url(#paint0_linear_1035_79739)" stroke-width="1.76621" stroke-linejoin="round"/>
<path d="M15.8874 1.16797L15.6705 1.7542C15.386 2.52292 15.2438 2.90728 14.9634 3.18766C14.6831 3.46805 14.2987 3.61028 13.53 3.89472L12.9437 4.11165L13.53 4.32858C14.2987 4.61303 14.6831 4.75526 14.9634 5.03565C15.2438 5.31602 15.386 5.70039 15.6705 6.4691L15.8874 7.05534L16.1044 6.4691C16.3888 5.70039 16.531 5.31602 16.8114 5.03564C17.0918 4.75526 17.4761 4.61303 18.2448 4.32858L18.8311 4.11165L18.2448 3.89472C17.4761 3.61028 17.0918 3.46805 16.8114 3.18766C16.531 2.90728 16.3888 2.52292 16.1044 1.7542L15.8874 1.16797Z" stroke="url(#paint1_linear_1035_79739)" stroke-width="1.32466" stroke-linejoin="round"/>
<defs>
<linearGradient id="paint0_linear_1035_79739" x1="1.16873" y1="18.8309" x2="14.906" y2="5.09358" gradientUnits="userSpaceOnUse">
<stop stop-color="#AD00FE"/>
<stop offset="1" stop-color="#00E0EE"/>
</linearGradient>
<linearGradient id="paint1_linear_1035_79739" x1="12.9436" y1="7.0553" x2="18.831" y2="1.1679" gradientUnits="userSpaceOnUse">
<stop stop-color="#AD00FE"/>
<stop offset="1" stop-color="#00E0EE"/>
</linearGradient>
</defs>
</svg>
