<svg width="20" height="23" viewBox="0 0 20 23" fill="none" xmlns="http://www.w3.org/2000/svg">
<path d="M18.8426 17.4093C18.5099 18.1779 18.1161 18.8855 17.6598 19.5359C17.0378 20.4227 16.5286 21.0365 16.1361 21.3774C15.5277 21.9368 14.8759 22.2234 14.1779 22.2397C13.6768 22.2397 13.0725 22.0971 12.3691 21.8078C11.6633 21.5199 11.0148 21.3774 10.4217 21.3774C9.79978 21.3774 9.13274 21.5199 8.41926 21.8078C7.70469 22.0971 7.12904 22.2478 6.68892 22.2628C6.01957 22.2913 5.35239 21.9966 4.68644 21.3774C4.26139 21.0066 3.72974 20.3711 3.09285 19.4707C2.40951 18.5093 1.84772 17.3944 1.4076 16.1233C0.93624 14.7504 0.699951 13.4209 0.699951 12.1338C0.699951 10.6595 1.01853 9.38786 1.65665 8.32225C2.15815 7.46631 2.82533 6.79112 3.66035 6.29546C4.49537 5.79979 5.39761 5.54721 6.36925 5.53105C6.9009 5.53105 7.59809 5.6955 8.46448 6.0187C9.32843 6.34299 9.88316 6.50744 10.1264 6.50744C10.3082 6.50744 10.9245 6.31515 11.9692 5.93179C12.9571 5.57627 13.7909 5.42906 14.474 5.48705C16.3249 5.63643 17.7155 6.36607 18.6402 7.6806C16.9849 8.68361 16.166 10.0884 16.1823 11.8906C16.1972 13.2944 16.7065 14.4625 17.7073 15.39C18.1609 15.8205 18.6674 16.1532 19.231 16.3895C19.1087 16.7439 18.9797 17.0834 18.8426 17.4093ZM14.5975 0.704774C14.5975 1.80502 14.1956 2.83233 13.3944 3.78319C12.4275 4.91357 11.258 5.56676 9.98976 5.46369C9.9736 5.3317 9.96423 5.19277 9.96423 5.04679C9.96423 3.99055 10.424 2.86016 11.2406 1.93592C11.6483 1.46796 12.1667 1.07886 12.7955 0.768462C13.4229 0.462699 14.0163 0.293605 14.5744 0.264648C14.5907 0.411735 14.5975 0.558831 14.5975 0.704759V0.704774Z" fill="white"/>
</svg>
