<svg width="44" height="44" viewBox="0 0 44 44" fill="none" xmlns="http://www.w3.org/2000/svg">
<rect width="44" height="44" rx="22" fill="#EAEDFE"/>
<path d="M30.3333 28.668H13.6666V27.0013H14.5V21.1938C14.5 17.0371 17.8583 13.668 22 13.668C26.1416 13.668 29.5 17.0371 29.5 21.1938V27.0013H30.3333V28.668ZM16.1666 27.0013H27.8333V21.1938C27.8333 17.958 25.2216 15.3346 22 15.3346C18.7783 15.3346 16.1666 17.958 16.1666 21.1938V27.0013ZM19.9166 29.5013H24.0833C24.0833 30.0538 23.8638 30.5837 23.4731 30.9744C23.0824 31.3651 22.5525 31.5846 22 31.5846C21.4474 31.5846 20.9175 31.3651 20.5268 30.9744C20.1361 30.5837 19.9166 30.0538 19.9166 29.5013Z" fill="#233FAD"/>
</svg>
