<svg width="16" height="16" viewBox="0 0 16 16" fill="none" xmlns="http://www.w3.org/2000/svg">
<g clip-path="url(#clip0_901_42422)">
<path d="M6.23628 14.0007C6.70637 14.4156 7.32387 14.6673 8.00017 14.6673C8.67646 14.6673 9.29396 14.4156 9.76405 14.0007M1.52943 3.88058C1.51986 2.91301 2.04152 2.00948 2.88423 1.53398M14.4683 3.88058C14.4778 2.91302 13.9562 2.00949 13.1134 1.53399M12.0002 5.33398C12.0002 4.27312 11.5787 3.2557 10.8286 2.50556C10.0784 1.75541 9.06103 1.33398 8.00017 1.33398C6.9393 1.33398 5.92188 1.75541 5.17174 2.50556C4.42159 3.2557 4.00017 4.27312 4.00017 5.33398C4.00017 7.39411 3.48048 8.80462 2.89994 9.73759C2.41025 10.5246 2.1654 10.9181 2.17438 11.0278C2.18432 11.1494 2.21007 11.1957 2.30802 11.2684C2.39647 11.334 2.79523 11.334 3.59274 11.334H12.4076C13.2051 11.334 13.6039 11.334 13.6923 11.2684C13.7903 11.1957 13.816 11.1494 13.8259 11.0278C13.8349 10.9181 13.5901 10.5246 13.1004 9.73759C12.5199 8.80462 12.0002 7.39411 12.0002 5.33398Z" stroke="#101828" stroke-width="1.25" stroke-linecap="round" stroke-linejoin="round"/>
</g>
<defs>
<clipPath id="clip0_901_42422">
<rect width="16" height="16" fill="white"/>
</clipPath>
</defs>
</svg>
