<svg width="44" height="44" viewBox="0 0 44 44" fill="none" xmlns="http://www.w3.org/2000/svg">
<path d="M0 22C0 9.84974 9.84974 0 22 0C34.1503 0 44 9.84974 44 22C44 34.1503 34.1503 44 22 44C9.84974 44 0 34.1503 0 22Z" fill="#EAEDFE"/>
<path d="M18.6666 18.6654V17.832M18.6666 22.4154V21.582M18.6666 26.1654V25.332M17.6666 28.6654H26.3333C27.7334 28.6654 28.4335 28.6654 28.9683 28.3929C29.4387 28.1532 29.8211 27.7707 30.0608 27.3003C30.3333 26.7656 30.3333 26.0655 30.3333 24.6654V19.332C30.3333 17.9319 30.3333 17.2318 30.0608 16.6971C29.8211 16.2266 29.4387 15.8442 28.9683 15.6045C28.4335 15.332 27.7334 15.332 26.3333 15.332H17.6666C16.2665 15.332 15.5664 15.332 15.0316 15.6045C14.5612 15.8442 14.1788 16.2266 13.9391 16.6971C13.6666 17.2318 13.6666 17.9319 13.6666 19.332V24.6654C13.6666 26.0655 13.6666 26.7656 13.9391 27.3003C14.1788 27.7707 14.5612 28.1532 15.0316 28.3929C15.5664 28.6654 16.2665 28.6654 17.6666 28.6654Z" stroke="#233FAD" stroke-width="1.66667" stroke-linecap="round" stroke-linejoin="round"/>
</svg>
