<svg width="18" height="16" viewBox="0 0 18 16" fill="none" xmlns="http://www.w3.org/2000/svg">
<path d="M16.5001 0.5C16.9601 0.5 17.3334 0.873333 17.3334 1.33333V14.6667C17.3334 15.1267 16.9601 15.5 16.5001 15.5H1.50008C1.04008 15.5 0.666748 15.1267 0.666748 14.6667V1.33333C0.666748 0.873333 1.04008 0.5 1.50008 0.5H16.5001ZM15.6667 2.16667H2.33341V13.8333H15.6667V2.16667ZM6.50008 4.66667C7.42092 4.66667 8.25425 5.04 8.85758 5.64417L7.67925 6.8225C7.37758 6.52 6.96092 6.33333 6.50008 6.33333C5.57925 6.33333 4.83342 7.07917 4.83342 8C4.83342 8.92083 5.57925 9.66667 6.50008 9.66667C6.96092 9.66667 7.37758 9.48 7.67841 9.17833L8.85675 10.3567C8.25342 10.96 7.42008 11.3333 6.50008 11.3333C4.66008 11.3333 3.16675 9.84 3.16675 8C3.16675 6.16 4.66008 4.66667 6.50008 4.66667ZM12.3334 4.66667C13.2542 4.66667 14.0876 5.04 14.6909 5.64417L13.5126 6.8225C13.2109 6.52 12.7942 6.33333 12.3334 6.33333C11.4126 6.33333 10.6667 7.07917 10.6667 8C10.6667 8.92083 11.4126 9.66667 12.3334 9.66667C12.7934 9.66667 13.2101 9.48 13.5117 9.17833L14.6901 10.3567C14.0867 10.96 13.2534 11.3333 12.3334 11.3333C10.4934 11.3333 9.00008 9.84 9.00008 8C9.00008 6.16 10.4934 4.66667 12.3334 4.66667Z" fill="#101828"/>
</svg>
