<svg width="44" height="44" viewBox="0 0 44 44" fill="none" xmlns="http://www.w3.org/2000/svg">
<path d="M0 22C0 9.84974 9.84974 0 22 0C34.1503 0 44 9.84974 44 22C44 34.1503 34.1503 44 22 44C9.84974 44 0 34.1503 0 22Z" fill="#EAEDFE"/>
<path d="M26.5834 14.0625L31.1667 22.0008L26.5834 29.9392H17.4167L12.8334 22.0008L17.4167 14.0625H26.5834ZM25.6209 15.7292H18.3792L14.7575 22.0008L18.3792 28.2725H25.6209L29.2425 22.0008L25.6209 15.7292ZM19.195 18.8092L20.6384 17.9758L24.805 25.1925L23.3617 26.0258L19.195 18.8092Z" fill="#233FAD"/>
</svg>
