<svg width="20" height="20" viewBox="0 0 20 20" fill="none" xmlns="http://www.w3.org/2000/svg">
<path d="M11.6667 1.66602C13.1916 1.66529 14.6708 2.1874 15.8574 3.14529C17.044 4.10317 17.8663 5.43891 18.1872 6.92974C18.5081 8.42057 18.3082 9.97636 17.6209 11.3376C16.9335 12.6989 15.8002 13.7834 14.41 14.4102C13.9656 15.3926 13.2896 16.2526 12.4399 16.9164C11.5902 17.5802 10.5921 18.0279 9.53135 18.2213C8.47058 18.4147 7.37874 18.3479 6.34946 18.0266C5.32018 17.7053 4.38419 17.1392 3.62175 16.3768C2.85931 15.6143 2.29318 14.6783 1.97192 13.649C1.65065 12.6198 1.58384 11.5279 1.77721 10.4672C1.97057 9.40639 2.41835 8.40835 3.08213 7.55863C3.74592 6.70892 4.6059 6.03289 5.58832 5.58852C6.11678 4.41926 6.97131 3.42727 8.04944 2.73152C9.12758 2.03578 10.3835 1.66582 11.6667 1.66602V1.66602ZM8.33332 6.66602C7.67671 6.66602 7.02653 6.79535 6.41991 7.04662C5.81328 7.29789 5.26208 7.66619 4.79779 8.13048C4.3335 8.59478 3.9652 9.14597 3.71393 9.7526C3.46265 10.3592 3.33332 11.0094 3.33332 11.666C3.33332 12.3226 3.46265 12.9728 3.71393 13.5794C3.9652 14.1861 4.3335 14.7373 4.79779 15.2016C5.26208 15.6658 5.81328 16.0341 6.41991 16.2854C7.02653 16.5367 7.67671 16.666 8.33332 16.666C9.65941 16.666 10.9312 16.1392 11.8689 15.2016C12.8065 14.2639 13.3333 12.9921 13.3333 11.666C13.3333 10.3399 12.8065 9.06816 11.8689 8.13048C10.9312 7.1928 9.65941 6.66602 8.33332 6.66602ZM9.16666 7.49935V8.33268H10.8333V9.99935H7.49999C7.39587 9.99916 7.29545 10.038 7.21851 10.1081C7.14156 10.1783 7.09367 10.2747 7.08426 10.3784C7.07485 10.4821 7.10461 10.5855 7.16767 10.6684C7.23074 10.7512 7.32253 10.8075 7.42499 10.826L7.49999 10.8327H9.16666C9.71919 10.8327 10.2491 11.0522 10.6398 11.4429C11.0305 11.8336 11.25 12.3635 11.25 12.916C11.25 13.4686 11.0305 13.9985 10.6398 14.3892C10.2491 14.7799 9.71919 14.9993 9.16666 14.9993V15.8327H7.49999V14.9993H5.83332V13.3327H9.16666C9.27078 13.3329 9.3712 13.2941 9.44814 13.2239C9.52509 13.1538 9.57298 13.0574 9.58239 12.9537C9.59179 12.85 9.56204 12.7465 9.49897 12.6637C9.43591 12.5808 9.34411 12.5246 9.24166 12.506L9.16666 12.4994H7.49999C6.94746 12.4994 6.41755 12.2799 6.02685 11.8892C5.63615 11.4985 5.41666 10.9686 5.41666 10.416C5.41666 9.86348 5.63615 9.33358 6.02685 8.94288C6.41755 8.55218 6.94746 8.33268 7.49999 8.33268V7.49935H9.16666ZM11.6667 3.33268C10.9606 3.33186 10.2623 3.48097 9.61818 3.77015C8.97401 4.05933 8.3986 4.482 7.92999 5.01018C8.87188 4.953 9.81517 5.09643 10.6975 5.43097C11.5798 5.76551 12.3811 6.28355 13.0483 6.95083C13.7155 7.61811 14.2334 8.41943 14.5679 9.30179C14.9023 10.1842 15.0456 11.1275 14.9883 12.0694C15.746 11.3957 16.281 10.5076 16.5223 9.52294C16.7637 8.53825 16.7 7.50345 16.3397 6.55578C15.9794 5.60812 15.3395 4.79238 14.5049 4.21675C13.6704 3.64112 12.6805 3.3328 11.6667 3.33268V3.33268Z" fill="#2D53DD"/>
</svg>
