<svg width="44" height="44" viewBox="0 0 44 44" fill="none" xmlns="http://www.w3.org/2000/svg">
<path d="M0 22C0 9.84974 9.84974 0 22 0C34.1503 0 44 9.84974 44 22C44 34.1503 34.1503 44 22 44C9.84974 44 0 34.1503 0 22Z" fill="#EAEDFE"/>
<path d="M28.6667 30.3346H17C16.337 30.3346 15.7011 30.0712 15.2322 29.6024C14.7634 29.1336 14.5 28.4977 14.5 27.8346V16.168C14.5 15.5049 14.7634 14.869 15.2322 14.4002C15.7011 13.9314 16.337 13.668 17 13.668H28.6667C28.8877 13.668 29.0996 13.7558 29.2559 13.912C29.4122 14.0683 29.5 14.2803 29.5 14.5013V29.5013C29.5 29.7223 29.4122 29.9343 29.2559 30.0906C29.0996 30.2468 28.8877 30.3346 28.6667 30.3346ZM27.8333 28.668V27.0013H17C16.779 27.0013 16.567 27.0891 16.4107 27.2454C16.2545 27.4017 16.1667 27.6136 16.1667 27.8346C16.1667 28.0556 16.2545 28.2676 16.4107 28.4239C16.567 28.5802 16.779 28.668 17 28.668H27.8333ZM16.1667 25.4763C16.4275 25.3846 16.7083 25.3346 17 25.3346H27.8333V15.3346H17C16.779 15.3346 16.567 15.4224 16.4107 15.5787C16.2545 15.735 16.1667 15.947 16.1667 16.168V25.4763ZM22 20.3346C21.558 20.3346 21.134 20.159 20.8215 19.8465C20.5089 19.5339 20.3333 19.11 20.3333 18.668C20.3333 18.2259 20.5089 17.802 20.8215 17.4895C21.134 17.1769 21.558 17.0013 22 17.0013C22.442 17.0013 22.866 17.1769 23.1785 17.4895C23.4911 17.802 23.6667 18.2259 23.6667 18.668C23.6667 19.11 23.4911 19.5339 23.1785 19.8465C22.866 20.159 22.442 20.3346 22 20.3346ZM19.5 23.668C19.5 23.0049 19.7634 22.369 20.2322 21.9002C20.7011 21.4314 21.337 21.168 22 21.168C22.663 21.168 23.2989 21.4314 23.7678 21.9002C24.2366 22.369 24.5 23.0049 24.5 23.668H19.5Z" fill="#233FAD"/>
</svg>
