<svg width="14" height="20" viewBox="0 0 14 20" fill="none" xmlns="http://www.w3.org/2000/svg">
<path d="M3.55722 12.8826L2.83333 18.3327L6.657 16.0385C6.78171 15.9637 6.84406 15.9262 6.91063 15.9116C6.96951 15.8987 7.03049 15.8987 7.08937 15.9116C7.15593 15.9262 7.21829 15.9637 7.343 16.0385L11.1667 18.3327L10.4433 12.8803M10.6882 3.54008C10.8169 3.85135 11.064 4.09876 11.375 4.22794L12.4658 4.67975C12.7771 4.80869 13.0244 5.05601 13.1533 5.3673C13.2822 5.67859 13.2822 6.02836 13.1533 6.33965L12.7018 7.42964C12.5728 7.74107 12.5726 8.09119 12.7022 8.40247L13.1529 9.49214C13.2168 9.64632 13.2498 9.81158 13.2498 9.97848C13.2498 10.1454 13.2169 10.3107 13.1531 10.4649C13.0892 10.6191 12.9956 10.7592 12.8775 10.8772C12.7595 10.9952 12.6194 11.0887 12.4652 11.1526L11.3752 11.6041C11.064 11.7328 10.8166 11.9798 10.6874 12.2909L10.2356 13.3817C10.1067 13.6929 9.85935 13.9403 9.54807 14.0692C9.23679 14.1981 8.88704 14.1981 8.57576 14.0692L7.4858 13.6177C7.17451 13.4891 6.82489 13.4894 6.5138 13.6184L5.42306 14.0696C5.11195 14.1983 4.76251 14.1981 4.45148 14.0693C4.14045 13.9405 3.89328 13.6934 3.76426 13.3825L3.31232 12.2914C3.18363 11.9801 2.93659 11.7327 2.62553 11.6035L1.53479 11.1517C1.22365 11.0228 0.97641 10.7757 0.847426 10.4646C0.718443 10.1534 0.718268 9.80385 0.84694 9.49261L1.29841 8.40261C1.42703 8.09131 1.42677 7.74167 1.29768 7.43057L0.846858 6.33901C0.782939 6.18483 0.750027 6.01956 0.75 5.85266C0.749973 5.68576 0.782833 5.52049 0.846702 5.36629C0.910571 5.21209 1.0042 5.07199 1.12223 4.95399C1.24026 4.83599 1.38039 4.7424 1.5346 4.67858L2.62456 4.22709C2.93554 4.0985 3.1828 3.85177 3.31206 3.54105L3.76386 2.45027C3.8928 2.13898 4.14011 1.89166 4.45139 1.76272C4.76267 1.63378 5.11242 1.63378 5.4237 1.76272L6.51365 2.21421C6.82494 2.34284 7.17456 2.34257 7.48566 2.21348L8.57686 1.76342C8.88809 1.63455 9.23777 1.63458 9.54899 1.76349C9.8602 1.89241 10.1075 2.13966 10.2364 2.45087L10.6884 3.54197L10.6882 3.54008Z" stroke="#101828" stroke-width="1.5" stroke-linecap="round" stroke-linejoin="round"/>
</svg>
