<svg width="64" height="64" viewBox="0 0 64 64" fill="none" xmlns="http://www.w3.org/2000/svg">
<rect width="64" height="64" rx="32" fill="#FEF3F2"/>
<path d="M31.9998 28.7424V32.7424M31.9998 36.7424H32.0098M30.6151 23.6341L22.3902 37.8408C21.934 38.6288 21.7059 39.0227 21.7396 39.3461C21.769 39.6282 21.9168 39.8845 22.1461 40.0512C22.4091 40.2424 22.8643 40.2424 23.7749 40.2424H40.2246C41.1352 40.2424 41.5904 40.2424 41.8534 40.0512C42.0827 39.8845 42.2305 39.6282 42.2599 39.3461C42.2936 39.0227 42.0655 38.6288 41.6093 37.8408L33.3844 23.6341C32.9299 22.849 32.7026 22.4564 32.4061 22.3245C32.1474 22.2095 31.8521 22.2095 31.5935 22.3245C31.2969 22.4564 31.0696 22.849 30.6151 23.6341Z" stroke="#D92D20" stroke-width="2" stroke-linecap="round" stroke-linejoin="round"/>
</svg>
