<svg width="44" height="44" viewBox="0 0 44 44" fill="none" xmlns="http://www.w3.org/2000/svg">
<path d="M0 22C0 9.84974 9.84974 0 22 0C34.1503 0 44 9.84974 44 22C44 34.1503 34.1503 44 22 44C9.84974 44 0 34.1503 0 22Z" fill="#FEF3F2"/>
<path d="M25.3333 17.0013V16.3346C25.3333 15.4012 25.3333 14.9345 25.1517 14.578C24.9919 14.2644 24.7369 14.0094 24.4233 13.8496C24.0668 13.668 23.6001 13.668 22.6667 13.668H21.3333C20.3999 13.668 19.9332 13.668 19.5767 13.8496C19.2631 14.0094 19.0081 14.2644 18.8483 14.578C18.6667 14.9345 18.6667 15.4012 18.6667 16.3346V17.0013M14.5 17.0013H29.5M27.8333 17.0013V26.3346C27.8333 27.7348 27.8333 28.4348 27.5608 28.9696C27.3212 29.44 26.9387 29.8225 26.4683 30.0622C25.9335 30.3346 25.2335 30.3346 23.8333 30.3346H20.1667C18.7665 30.3346 18.0665 30.3346 17.5317 30.0622C17.0613 29.8225 16.6788 29.44 16.4392 28.9696C16.1667 28.4348 16.1667 27.7348 16.1667 26.3346V17.0013" stroke="#B42318" stroke-width="1.66667" stroke-linecap="round" stroke-linejoin="round"/>
</svg>
