<svg width="44" height="44" viewBox="0 0 44 44" fill="none" xmlns="http://www.w3.org/2000/svg">
<path d="M0 22C0 9.84974 9.84974 0 22 0C34.1503 0 44 9.84974 44 22C44 34.1503 34.1503 44 22 44C9.84974 44 0 34.1503 0 22Z" fill="#EAEDFE"/>
<path d="M27.8333 18.668H29.5C29.721 18.668 29.933 18.7558 30.0893 18.912C30.2455 19.0683 30.3333 19.2803 30.3333 19.5013V29.5013C30.3333 29.7223 30.2455 29.9343 30.0893 30.0906C29.933 30.2468 29.721 30.3346 29.5 30.3346H22.8333C22.6123 30.3346 22.4004 30.2468 22.2441 30.0906C22.0878 29.9343 22 29.7223 22 29.5013V28.668H15.3333C15.1123 28.668 14.9004 28.5802 14.7441 28.4239C14.5878 28.2676 14.5 28.0556 14.5 27.8346V14.5013C14.5 14.2803 14.5878 14.0683 14.7441 13.912C14.9004 13.7558 15.1123 13.668 15.3333 13.668H27C27.221 13.668 27.433 13.7558 27.5893 13.912C27.7455 14.0683 27.8333 14.2803 27.8333 14.5013V18.668ZM26.1667 18.668V15.3346H16.1667V27.0013H22V19.5013C22 19.2803 22.0878 19.0683 22.2441 18.912C22.4004 18.7558 22.6123 18.668 22.8333 18.668H26.1667ZM23.6667 20.3346V28.668H28.6667V20.3346H23.6667Z" fill="#233FAD"/>
</svg>
