<svg width="18" height="20" viewBox="0 0 18 20" fill="none" xmlns="http://www.w3.org/2000/svg">
<path d="M3.16694 18.3337H14.8336M1.08361 6.66699H16.9169M7.33361 1.66699L5.66694 6.66699L9.00027 15.417L12.3336 6.66699L10.6669 1.66699M9.49357 15.291L16.9432 7.0964C17.0816 6.94419 17.1508 6.86809 17.1784 6.78143C17.2027 6.70507 17.2044 6.62332 17.1834 6.54598C17.1596 6.45821 17.0938 6.3792 16.9621 6.22117L13.3668 1.90687C13.2934 1.8187 13.2566 1.77461 13.2116 1.74291C13.1717 1.71483 13.1272 1.69398 13.08 1.6813C13.0269 1.66699 12.9695 1.66699 12.8547 1.66699L5.14586 1.66699C5.03108 1.66699 4.97369 1.66699 4.92051 1.6813C4.87339 1.69398 4.82887 1.71483 4.78896 1.74291C4.74393 1.77461 4.70719 1.8187 4.63371 1.90687L1.03846 6.22117C0.90677 6.3792 0.840924 6.45821 0.817108 6.54598C0.796122 6.62331 0.797883 6.70506 0.82218 6.78143C0.849753 6.86808 0.918941 6.94419 1.05732 7.0964L8.50698 15.291C8.67799 15.4792 8.7635 15.5732 8.864 15.608C8.95228 15.6385 9.04827 15.6385 9.13655 15.608C9.23705 15.5732 9.32255 15.4792 9.49357 15.291Z" stroke="url(#paint0_linear_1729_2394)" stroke-width="1.5" stroke-linecap="round" stroke-linejoin="round"/>
<defs>
<linearGradient id="paint0_linear_1729_2394" x1="0.802311" y1="18.3336" x2="17.4668" y2="1.94025" gradientUnits="userSpaceOnUse">
<stop stop-color="#AD00FE"/>
<stop offset="1" stop-color="#00E0EE"/>
</linearGradient>
</defs>
</svg>
