<svg width="44" height="44" viewBox="0 0 44 44" fill="none" xmlns="http://www.w3.org/2000/svg">
<path d="M0 22C0 9.84974 9.84974 0 22 0C34.1503 0 44 9.84974 44 22C44 34.1503 34.1503 44 22 44C9.84974 44 0 34.1503 0 22Z" fill="#EAEDFE"/>
<path d="M29.5 19.5L24.1262 23.3384C23.963 23.455 23.8813 23.5133 23.7939 23.5309C23.7168 23.5464 23.637 23.5398 23.5635 23.5119C23.4801 23.4801 23.4092 23.4092 23.2673 23.2673L20.7327 20.7327C20.5908 20.5908 20.5199 20.5199 20.4365 20.4881C20.363 20.4602 20.2832 20.4536 20.2061 20.4691C20.1187 20.4867 20.037 20.545 19.8738 20.6616L14.5 24.5M18.5 29.5H25.5C26.9001 29.5 27.6002 29.5 28.135 29.2275C28.6054 28.9878 28.9878 28.6054 29.2275 28.135C29.5 27.6002 29.5 26.9001 29.5 25.5V18.5C29.5 17.0999 29.5 16.3998 29.2275 15.865C28.9878 15.3946 28.6054 15.0122 28.135 14.7725C27.6002 14.5 26.9001 14.5 25.5 14.5H18.5C17.0999 14.5 16.3998 14.5 15.865 14.7725C15.3946 15.0122 15.0122 15.3946 14.7725 15.865C14.5 16.3998 14.5 17.0999 14.5 18.5V25.5C14.5 26.9001 14.5 27.6002 14.7725 28.135C15.0122 28.6054 15.3946 28.9878 15.865 29.2275C16.3998 29.5 17.0999 29.5 18.5 29.5Z" stroke="#233FAD" stroke-width="1.5625" stroke-linecap="round" stroke-linejoin="round"/>
</svg>
