<svg width="16" height="20" viewBox="0 0 16 20" fill="none" xmlns="http://www.w3.org/2000/svg">
<path d="M9.66659 1.89063V5.33274C9.66659 5.79945 9.66659 6.03281 9.75741 6.21107C9.83731 6.36787 9.96479 6.49535 10.1216 6.57525C10.2999 6.66608 10.5332 6.66608 10.9999 6.66608H14.442M9.66659 14.166H4.66659M11.3333 10.8327H4.66659M14.6666 8.32287V14.3327C14.6666 15.7328 14.6666 16.4329 14.3941 16.9677C14.1544 17.4381 13.772 17.8205 13.3016 18.0602C12.7668 18.3327 12.0667 18.3327 10.6666 18.3327H5.33325C3.93312 18.3327 3.23306 18.3327 2.69828 18.0602C2.22787 17.8205 1.84542 17.4381 1.60574 16.9677C1.33325 16.4329 1.33325 15.7328 1.33325 14.3327V5.66602C1.33325 4.26588 1.33325 3.56582 1.60574 3.03104C1.84542 2.56063 2.22787 2.17818 2.69828 1.9385C3.23306 1.66602 3.93312 1.66602 5.33325 1.66602H8.00973C8.62121 1.66602 8.92695 1.66602 9.21466 1.73509C9.46975 1.79633 9.71362 1.89734 9.9373 2.03442C10.1896 2.18902 10.4058 2.40521 10.8382 2.83759L13.495 5.49444C13.9274 5.92682 14.1436 6.14301 14.2982 6.3953C14.4353 6.61898 14.5363 6.86285 14.5975 7.11794C14.6666 7.40566 14.6666 7.71139 14.6666 8.32287Z" stroke="#101828" stroke-width="1.5" stroke-linecap="round" stroke-linejoin="round"/>
</svg>
