<svg width="16" height="20" viewBox="0 0 16 20" fill="none" xmlns="http://www.w3.org/2000/svg">
<path d="M9.66659 1.89063V5.33274C9.66659 5.79945 9.66659 6.03281 9.75741 6.21107C9.83731 6.36787 9.96479 6.49535 10.1216 6.57525C10.2999 6.66608 10.5332 6.66608 10.9999 6.66608H14.442M5.49992 12.4993L7.99992 14.9993M7.99992 14.9993L10.4999 12.4993M7.99992 14.9993L7.99992 9.99935M9.66659 1.66602H5.33325C3.93312 1.66602 3.23306 1.66602 2.69828 1.9385C2.22787 2.17818 1.84542 2.56063 1.60574 3.03104C1.33325 3.56582 1.33325 4.26588 1.33325 5.66602V14.3327C1.33325 15.7328 1.33325 16.4329 1.60574 16.9677C1.84542 17.4381 2.22787 17.8205 2.69828 18.0602C3.23306 18.3327 3.93312 18.3327 5.33325 18.3327H10.6666C12.0667 18.3327 12.7668 18.3327 13.3016 18.0602C13.772 17.8205 14.1544 17.4381 14.3941 16.9677C14.6666 16.4329 14.6666 15.7328 14.6666 14.3327V6.66602L9.66659 1.66602Z" stroke="#101828" stroke-width="1.5" stroke-linecap="round" stroke-linejoin="round"/>
</svg>
