<svg width="20" height="21" viewBox="0 0 20 21" fill="none" xmlns="http://www.w3.org/2000/svg">
<path d="M6 1.26416H5.8C4.11984 1.26416 3.27976 1.26416 2.63803 1.59114C2.07354 1.87876 1.6146 2.3377 1.32698 2.90219C1 3.54392 1 4.384 1 6.06416V6.26416M6 19.2642H5.8C4.11984 19.2642 3.27976 19.2642 2.63803 18.9372C2.07354 18.6496 1.6146 18.1906 1.32698 17.6261C1 16.9844 1 16.1443 1 14.4642V14.2642M19 6.26416V6.06416C19 4.384 19 3.54392 18.673 2.90219C18.3854 2.3377 17.9265 1.87876 17.362 1.59114C16.7202 1.26416 15.8802 1.26416 14.2 1.26416H14M19 14.2642V14.4642C19 16.1443 19 16.9844 18.673 17.6261C18.3854 18.1906 17.9265 18.6496 17.362 18.9372C16.7202 19.2642 15.8802 19.2642 14.2 19.2642H14M5.5 6.26416V7.76416M14.5 6.26416V7.76416M9 10.8643C9.8 10.8643 10.5 10.1643 10.5 9.36426V6.26416M13.2002 13.4641C11.4002 15.2641 8.5002 15.2641 6.7002 13.4641" stroke="white" stroke-width="1.8" stroke-linecap="round" stroke-linejoin="round"/>
</svg>
