<svg width="44" height="44" viewBox="0 0 44 44" fill="none" xmlns="http://www.w3.org/2000/svg">
<path d="M0 22C0 9.84974 9.84974 0 22 0C34.1503 0 44 9.84974 44 22C44 34.1503 34.1503 44 22 44C9.84974 44 0 34.1503 0 22Z" fill="#F2F4F7"/>
<path d="M29.243 14.757C30.705 16.223 31.255 18.25 30.893 20.137C31.461 20.297 31.999 20.6 32.447 21.045C33.851 22.439 33.851 24.699 32.447 26.092L27 31.5L23.978 28.5L21 31.485L12.52 22.993C10.417 20.637 10.496 17.019 12.757 14.757C15.022 12.493 18.645 12.417 21.001 14.529C23.35 12.42 26.98 12.49 29.243 14.757ZM22.962 22.465C22.346 23.076 22.346 24.062 22.962 24.673L27 28.682L31.038 24.673C31.654 24.062 31.654 23.076 31.038 22.465C30.414 21.845 29.396 21.845 28.77 22.467L26.998 24.221L25.591 22.825L25.228 22.465C24.604 21.845 23.586 21.845 22.962 22.465ZM14.172 16.172C12.682 17.662 12.607 20.047 13.98 21.623L21 28.654L22.559 27.092L21.553 26.092C20.149 24.699 20.149 22.439 21.553 21.045C22.957 19.652 25.233 19.652 26.637 21.045L27 21.405L27.363 21.045C27.788 20.624 28.293 20.33 28.828 20.163C29.244 18.796 28.906 17.251 27.827 16.17C26.327 14.668 23.907 14.607 22.337 16.017L21.002 17.215L19.666 16.018C18.091 14.606 15.676 14.668 14.172 16.172Z" fill="#344054"/>
</svg>
