<svg width="20" height="20" viewBox="0 0 20 20" fill="none" xmlns="http://www.w3.org/2000/svg">
<path d="M9.99996 1.66699C12.0844 3.94895 13.2689 6.91035 13.3333 10.0003C13.2689 13.0903 12.0844 16.0517 9.99996 18.3337M9.99996 1.66699C7.91556 3.94895 6.731 6.91035 6.66663 10.0003C6.731 13.0903 7.91556 16.0517 9.99996 18.3337M9.99996 1.66699C5.39759 1.66699 1.66663 5.39795 1.66663 10.0003C1.66663 14.6027 5.39759 18.3337 9.99996 18.3337M9.99996 1.66699C14.6023 1.66699 18.3333 5.39795 18.3333 10.0003C18.3333 14.6027 14.6023 18.3337 9.99996 18.3337M2.08331 7.50033H17.9166M2.08329 12.5003H17.9166" stroke="#315BF3" stroke-width="1.66667" stroke-linecap="round" stroke-linejoin="round"/>
</svg>
