<svg width="44" height="44" viewBox="0 0 44 44" fill="none" xmlns="http://www.w3.org/2000/svg">
<rect width="44" height="44" rx="22" fill="#F2F4F7"/>
<path d="M22 12C24.5013 14.7384 25.9228 18.292 26 22C25.9228 25.708 24.5013 29.2616 22 32M22 12C19.4987 14.7384 18.0772 18.292 18 22C18.0772 25.708 19.4987 29.2616 22 32M22 12C16.4772 12 12 16.4772 12 22C12 27.5228 16.4772 32 22 32M22 12C27.5228 12 32 16.4772 32 22C32 27.5228 27.5228 32 22 32M12.5 19H31.5M12.5 25H31.5" stroke="#344054" stroke-width="2" stroke-linecap="round" stroke-linejoin="round"/>
</svg>
