<svg width="24" height="25" viewBox="0 0 24 25" fill="none" xmlns="http://www.w3.org/2000/svg">
<g clip-path="url(#clip0_1205_522)">
<path d="M23.766 12.5404C23.766 11.7247 23.6999 10.9045 23.5588 10.1021H12.24V14.723H18.7217C18.4528 16.2134 17.5885 17.5318 16.323 18.3695V21.3679H20.19C22.4608 19.2779 23.766 16.1913 23.766 12.5404Z" fill="#4285F4"/>
<path d="M12.24 24.265C15.4764 24.265 18.2058 23.2023 20.1944 21.3681L16.3274 18.3697C15.2516 19.1017 13.8626 19.5161 12.2444 19.5161C9.11376 19.5161 6.45934 17.4041 5.50693 14.5645H1.51648V17.6554C3.55359 21.7076 7.70278 24.265 12.24 24.265Z" fill="#34A853"/>
<path d="M5.50253 14.5644C4.99987 13.074 4.99987 11.4602 5.50253 9.96985V6.87891H1.51649C-0.18551 10.2697 -0.18551 14.2645 1.51649 17.6553L5.50253 14.5644Z" fill="#FBBC04"/>
<path d="M12.24 5.01382C13.9508 4.98736 15.6043 5.63113 16.8433 6.81283L20.2694 3.38678C18.1 1.34966 15.2207 0.229694 12.24 0.264969C7.70277 0.264969 3.55359 2.82238 1.51648 6.87897L5.50252 9.96991C6.45052 7.12589 9.10935 5.01382 12.24 5.01382Z" fill="#EA4335"/>
</g>
<defs>
<clipPath id="clip0_1205_522">
<rect width="24" height="24" fill="white" transform="translate(0 0.26416)"/>
</clipPath>
</defs>
</svg>
