<svg width="15" height="20" viewBox="0 0 15 20" fill="none" xmlns="http://www.w3.org/2000/svg">
<path d="M5.25684 18.2741H9.4235M9.84017 12.7127C11.811 11.7765 13.1735 9.76775 13.1735 7.44076C13.1735 4.21909 10.5618 1.60742 7.34017 1.60742C4.11851 1.60742 1.50684 4.21909 1.50684 7.44076C1.50684 9.76775 2.86938 11.7765 4.84017 12.7127V13.2741C4.84017 14.0507 4.84017 14.4389 4.96704 14.7452C5.13619 15.1536 5.46065 15.4781 5.86903 15.6472C6.17532 15.7741 6.5636 15.7741 7.34017 15.7741C8.11674 15.7741 8.50502 15.7741 8.81131 15.6472C9.21969 15.4781 9.54415 15.1536 9.7133 14.7452C9.84017 14.4389 9.84017 14.0507 9.84017 13.2741V12.7127Z" stroke="#315BF3" stroke-width="2" stroke-linecap="round" stroke-linejoin="round"/>
</svg>
