<svg width="44" height="44" viewBox="0 0 44 44" fill="none" xmlns="http://www.w3.org/2000/svg">
<path d="M0 22C0 9.84974 9.84974 0 22 0C34.1503 0 44 9.84974 44 22C44 34.1503 34.1503 44 22 44C9.84974 44 0 34.1503 0 22Z" fill="#EAEDFE"/>
<path d="M26.1667 20.3333V18.6667C26.1667 16.3655 24.3012 14.5 22 14.5C19.6989 14.5 17.8334 16.3655 17.8334 18.6667V20.3333M22 24.0833V25.75M19.3334 29.5H24.6667C26.0668 29.5 26.7669 29.5 27.3017 29.2275C27.7721 28.9878 28.1545 28.6054 28.3942 28.135C28.6667 27.6002 28.6667 26.9001 28.6667 25.5V24.3333C28.6667 22.9332 28.6667 22.2331 28.3942 21.6984C28.1545 21.228 27.7721 20.8455 27.3017 20.6058C26.7669 20.3333 26.0668 20.3333 24.6667 20.3333H19.3334C17.9332 20.3333 17.2332 20.3333 16.6984 20.6058C16.228 20.8455 15.8455 21.228 15.6059 21.6984C15.3334 22.2331 15.3334 22.9332 15.3334 24.3333V25.5C15.3334 26.9001 15.3334 27.6002 15.6059 28.135C15.8455 28.6054 16.228 28.9878 16.6984 29.2275C17.2332 29.5 17.9332 29.5 19.3334 29.5Z" stroke="#233FAD" stroke-width="1.5625" stroke-linecap="round" stroke-linejoin="round"/>
</svg>
