<svg width="44" height="44" viewBox="0 0 44 44" fill="none" xmlns="http://www.w3.org/2000/svg">
<path d="M0 22C0 9.84974 9.84974 0 22 0C34.1503 0 44 9.84974 44 22C44 34.1503 34.1503 44 22 44C9.84974 44 0 34.1503 0 22Z" fill="#FEF3F2"/>
<path d="M25.3333 26.1667L29.5 22M29.5 22L25.3333 17.8333M29.5 22H19.5M22 26.1667C22 26.9416 22 27.3291 21.9148 27.647C21.6836 28.5098 21.0098 29.1836 20.147 29.4148C19.8291 29.5 19.4416 29.5 18.6667 29.5H18.25C17.0851 29.5 16.5027 29.5 16.0433 29.3097C15.4307 29.056 14.944 28.5693 14.6903 27.9567C14.5 27.4973 14.5 26.9149 14.5 25.75V18.25C14.5 17.0851 14.5 16.5027 14.6903 16.0433C14.944 15.4307 15.4307 14.944 16.0433 14.6903C16.5027 14.5 17.0851 14.5 18.25 14.5H18.6667C19.4416 14.5 19.8291 14.5 20.147 14.5852C21.0098 14.8164 21.6836 15.4902 21.9148 16.353C22 16.6709 22 17.0584 22 17.8333" stroke="#B42318" stroke-width="1.66667" stroke-linecap="round" stroke-linejoin="round"/>
</svg>
