<svg width="28" height="33" viewBox="0 0 28 33" fill="none" xmlns="http://www.w3.org/2000/svg">
<path d="M5.47727 5.25561C5.06513 5.49399 5.05798 6.08643 5.46423 6.3347L13.7937 11.4249C13.9885 11.544 14.2326 11.5479 14.4311 11.4351L23.1243 6.49744C23.5475 6.25704 23.548 5.64731 23.1252 5.40622L14.4201 0.442772C14.2262 0.332192 13.9881 0.332928 13.7949 0.444705L5.47727 5.25561Z" fill="#315BF3"/>
<path d="M0.499878 10.4234C0.499878 10.642 0.61369 10.845 0.800299 10.959L14.1094 19.0924L26.9672 11.7892C27.1636 11.6776 27.2849 11.4692 27.2849 11.2433V8.36549C27.2849 8.17874 27.2018 8.00169 27.0581 7.88242L26.576 7.48231C26.3751 7.31559 26.092 7.29059 25.865 7.41952L14.1033 14.1002L2.58108 7.05884C2.35204 6.91888 2.05935 6.94001 1.8528 7.11144L0.726727 8.04602C0.583022 8.16529 0.499878 8.34235 0.499878 8.5291V10.4234Z" fill="#315BF3"/>
<path d="M5.21286 16.0064L0.499878 13.1262V23.1449C0.499878 24.0197 0.955128 24.8315 1.70156 25.2876L5.21286 27.4334V16.0064Z" fill="#315BF3"/>
<path d="M23.0019 16.385V27.8193L26.014 26.1084C26.7996 25.6622 27.2849 24.8284 27.2849 23.9249V13.9522L23.0019 16.385Z" fill="#315BF3"/>
<path d="M7.49426 17.4004V28.8274L11.4784 31.2622C12.0361 31.603 12.7519 31.2016 12.7519 30.5479V20.6134L7.49426 17.4004Z" fill="#22CCEE"/>
<path d="M20.6921 17.6969L15.1765 20.8298V30.826C15.1765 31.4678 15.8689 31.8708 16.4269 31.5539L20.6921 29.1312V17.6969Z" fill="#22CCEE"/>
</svg>
