<svg width="22" height="22" viewBox="0 0 22 22" fill="none" xmlns="http://www.w3.org/2000/svg">
<path d="M7.45463 2.9082H7.27282C5.7454 2.9082 4.98169 2.9082 4.3983 3.20546C3.88513 3.46693 3.46791 3.88415 3.20643 4.39732C2.90918 4.98072 2.90918 5.74442 2.90918 7.27184V7.45366M7.45463 19.2718H7.27282C5.7454 19.2718 4.98169 19.2718 4.3983 18.9746C3.88513 18.7131 3.46791 18.2959 3.20643 17.7827C2.90918 17.1993 2.90918 16.4356 2.90918 14.9082V14.7264M19.2728 7.45366V7.27184C19.2728 5.74442 19.2728 4.98072 18.9756 4.39732C18.7141 3.88415 18.2969 3.46693 17.7837 3.20546C17.2003 2.9082 16.4366 2.9082 14.9092 2.9082H14.7274M19.2728 14.7264V14.9082C19.2728 16.4356 19.2728 17.1993 18.9756 17.7827C18.7141 18.2959 18.2969 18.7131 17.7837 18.9746C17.2003 19.2718 16.4366 19.2718 14.9092 19.2718H14.7274" stroke="white" stroke-width="2.18182" stroke-linecap="round" stroke-linejoin="round"/>
</svg>
