<svg width="14" height="14" viewBox="0 0 14 14" fill="none" xmlns="http://www.w3.org/2000/svg">
<path d="M7.00001 1.75065C6.53588 1.75065 6.09076 1.93503 5.76257 2.26321C5.43438 2.5914 5.25001 3.03652 5.25001 3.50065V5.83398C5.25001 6.29811 5.43438 6.74323 5.76257 7.07142C6.09076 7.39961 6.53588 7.58398 7.00001 7.58398C7.46413 7.58398 7.90925 7.39961 8.23744 7.07142C8.56563 6.74323 8.75001 6.29811 8.75001 5.83398V3.50065C8.75001 3.03652 8.56563 2.5914 8.23744 2.26321C7.90925 1.93503 7.46413 1.75065 7.00001 1.75065ZM7.00001 0.583984C7.38303 0.583984 7.7623 0.659426 8.11617 0.806002C8.47003 0.952579 8.79156 1.16742 9.0624 1.43826C9.33324 1.70909 9.54808 2.03062 9.69466 2.38449C9.84123 2.73836 9.91667 3.11763 9.91667 3.50065V5.83398C9.91667 6.60753 9.60938 7.3494 9.0624 7.89638C8.51542 8.44336 7.77355 8.75065 7.00001 8.75065C6.22646 8.75065 5.48459 8.44336 4.93761 7.89638C4.39063 7.3494 4.08334 6.60753 4.08334 5.83398V3.50065C4.08334 2.7271 4.39063 1.98524 4.93761 1.43826C5.48459 0.891275 6.22646 0.583984 7.00001 0.583984V0.583984ZM1.78209 6.41732H2.95751C3.09884 7.38844 3.5851 8.27621 4.32731 8.91822C5.06952 9.56023 6.01807 9.91356 6.99942 9.91356C7.98078 9.91356 8.92933 9.56023 9.67154 8.91822C10.4137 8.27621 10.9 7.38844 11.0413 6.41732H12.2173C12.0847 7.60073 11.5539 8.70395 10.7119 9.54605C9.86989 10.3881 8.76674 10.9191 7.58334 11.0519V13.4173H6.41667V11.0519C5.23317 10.9192 4.12988 10.3883 3.28778 9.54622C2.44567 8.70411 1.91475 7.60082 1.78209 6.41732V6.41732Z" fill="white"/>
</svg>
