<svg width="114" height="100" viewBox="0 0 114 100" fill="none" xmlns="http://www.w3.org/2000/svg">
<g clip-path="url(#clip0_1394_49251)">
<path d="M103.386 54.7486C103.386 71.4177 94.1354 86.255 81.1299 93.6737C81.1299 93.6737 81.0383 93.7653 80.9467 93.7653C79.2981 94.7727 77.1916 95.6886 76.2757 96.1466H76.1841C75.4514 96.4213 71.0551 98.2531 70.3224 98.2531C70.2309 98.2531 70.1393 98.2531 70.1393 98.3447C70.0477 98.3447 69.9561 98.3447 69.8645 98.4363C67.9411 98.9858 65.1935 99.4437 64.644 99.5353C64.644 99.8101 56.2178 100.634 49.0739 99.0774C48.158 99.0774 42.2964 97.5204 37.1674 94.9559C22.6965 87.4457 12.7133 72.242 12.7133 54.7486C12.7133 29.7449 33.0459 9.50391 58.0496 9.50391C83.1448 9.50391 103.386 29.7449 103.386 54.7486Z" fill="#EAEEF9"/>
<path d="M71.7878 73.25V97.8873C71.6963 97.8873 70.5056 98.3452 70.414 98.3452C70.3224 98.3452 70.2308 98.3452 70.2308 98.4368C70.1392 98.4368 70.0477 98.4368 69.9561 98.5284C68.0327 99.0779 65.2851 99.5359 64.7355 99.6275V73.25H71.7878Z" fill="#4988FD"/>
<path d="M71.7878 73.25V97.8873C71.6963 97.8873 70.5056 98.3452 70.414 98.3452C70.3224 98.3452 70.2308 98.3452 70.2308 98.4368C70.1392 98.4368 70.0477 98.4368 69.9561 98.5284C68.0327 99.0779 65.2851 99.5359 64.7355 99.6275V73.25H71.7878Z" fill="white"/>
<path d="M78.199 73.25V95.3228C77.7411 95.5976 76.9168 95.8723 76.2757 96.2387H76.1841C74.9934 96.7882 73.6196 97.3378 71.2383 98.0705V73.3416H78.199V73.25Z" fill="#2767F4"/>
<path d="M78.199 73.25V95.3228C77.7411 95.5976 76.9168 95.8723 76.2757 96.2387H76.1841C74.9934 96.7882 73.6196 97.3378 71.2383 98.0705V73.3416H78.199V73.25Z" fill="#D5DAE8"/>
<path opacity="0.1" d="M78.199 82.7754V93.766C77.2831 94.2239 76.5504 94.5903 76.5504 94.5903H76.4588C74.9018 95.4146 72.5205 96.1473 71.5131 96.4221C71.4215 96.4221 71.3299 96.5137 71.2383 96.5137V94.1324C72.3374 90.8352 74.1691 87.4464 76.642 84.6072C77.1 83.966 77.6495 83.3249 78.199 82.7754Z" fill="#062C78"/>
<path opacity="0.1" d="M78.199 73.25H64.7355V81.035H78.199V73.25Z" fill="#062C78"/>
<path d="M106.866 45.5917V73.6178H84.9766V73.7094H41.1057V23.3357H82.7785C83.328 23.2441 83.8775 23.2441 84.5187 23.2441C85.2514 23.2441 85.8925 23.2441 86.6252 23.3357C87.5411 23.4273 88.3654 23.5189 89.1897 23.7021C93.4943 24.618 97.341 26.8161 100.272 29.7469C104.393 33.8684 106.866 39.4553 106.866 45.5917Z" fill="url(#paint0_linear_1394_49251)"/>
<path d="M98.4401 53.2857C101.188 53.2857 103.477 51.0875 103.477 48.2483C103.477 45.4091 101.188 43.2109 98.4401 43.2109C95.6924 43.2109 93.4027 45.4091 93.4027 48.2483C93.4027 51.0875 95.6008 53.2857 98.4401 53.2857Z" fill="#737C90"/>
<path d="M99.2644 52.6431C102.104 52.6431 104.485 50.445 104.485 47.6057C104.485 44.7665 102.195 42.5684 99.2644 42.5684C96.4251 42.5684 94.0438 44.7665 94.0438 47.6057C94.0438 50.445 96.3335 52.6431 99.2644 52.6431Z" fill="#D5DAE8"/>
<path d="M99.5391 52.6431C102.287 52.6431 104.576 50.445 104.576 47.6057C104.576 44.7665 102.287 42.5684 99.5391 42.5684C96.7915 42.5684 94.5018 44.7665 94.5018 47.6057C94.5018 50.445 96.6999 52.6431 99.5391 52.6431Z" fill="#F5F7FB"/>
<path d="M99.5391 49.5303C100.638 49.5303 101.462 48.706 101.462 47.607C101.462 46.5079 100.638 45.6836 99.5391 45.6836C98.44 45.6836 97.6157 46.5079 97.6157 47.607C97.6157 48.706 98.44 49.5303 99.5391 49.5303Z" fill="#CED7E2"/>
<path d="M62.9038 43.3938V73.7096H18.2086V43.3938C18.2086 33.8686 24.9862 25.8088 33.8703 23.7939C35.3357 23.4275 36.8011 23.3359 38.3581 23.3359H42.9375C53.0122 23.3359 61.2552 30.663 62.8122 40.2798C62.8122 41.1957 62.9038 42.2947 62.9038 43.3938Z" fill="#737C91"/>
<path opacity="0.7" d="M62.9037 47.8803L62.629 40.5532C61.072 30.9364 52.7374 23.6094 42.7543 23.6094H38.1749C36.6179 23.6094 35.1524 23.7926 33.687 24.0673L33.1375 24.5253L44.4029 70.9606L62.7206 71.9681L62.9037 47.8803Z" fill="url(#paint1_linear_1394_49251)"/>
<path d="M62.8122 40.2798C61.2552 30.663 52.9206 23.3359 42.9375 23.3359H38.3581C36.8011 23.3359 35.3357 23.4275 33.8703 23.7939C24.8946 25.8088 18.2086 33.777 18.2086 43.3938V73.7096H62.9038V43.3938C62.9038 42.2947 62.8122 41.1957 62.8122 40.2798ZM61.072 71.8778H20.0404V43.3938C20.0404 34.9677 25.9936 27.4574 34.3282 25.6256C35.5188 25.3509 36.7095 25.2593 38.3581 25.2593H42.9375C51.9132 25.2593 59.515 31.6705 60.9804 40.5546C60.9804 40.9209 60.9804 41.3789 60.9804 41.8368C60.9804 42.3863 60.9804 42.9359 60.9804 43.4854V71.8778H61.072Z" fill="#C3CAD6"/>
<path d="M52.4627 90.834C51.1805 92.7573 49.6235 95.8713 48.7076 98.4358C48.616 98.619 48.5244 98.8938 48.5244 99.0769C47.8833 98.9854 47.2422 98.8022 46.601 98.619C46.0515 97.3368 45.6852 95.9629 45.6852 95.9629C46.0515 95.505 46.3263 95.1386 46.6926 94.7723C48.4328 92.6657 50.2646 91.2003 52.4627 90.834Z" fill="#C1C8D7"/>
<path d="M49.0739 99.1689C48.8907 99.1689 48.7075 99.0773 48.5244 99.0773C47.8832 98.9857 47.2421 98.8026 46.601 98.6194C46.1431 98.5278 45.7767 98.3446 45.3188 98.253C45.1356 98.1614 44.9524 98.1614 44.7692 98.0698C44.5861 97.9783 44.4029 97.9783 44.1281 97.8867C41.7468 97.154 39.4571 96.1465 37.259 95.0474C34.9693 91.2007 33.687 86.5297 31.4889 80.0269C31.4889 79.9353 31.4889 79.9353 31.3973 79.8438C31.3973 79.8438 31.5805 79.8437 32.0385 80.0269C32.3132 80.2101 32.7712 80.3933 33.3207 80.7596C34.4198 81.4923 36.1599 82.7746 38.7244 84.8811C41.93 87.5372 44.6777 91.4755 46.601 94.6811C47.4253 96.1465 48.158 97.4287 48.7075 98.4362C48.8907 98.6194 48.9823 98.8941 49.0739 99.1689Z" fill="#D5DAE8"/>
<path d="M45.3188 98.1632C45.1356 98.0716 44.9525 98.0716 44.7693 97.98C44.5861 97.8884 44.4029 97.8884 44.1282 97.7968C39.9151 89.3707 35.1525 83.967 32.4048 80.853C32.1301 80.4866 31.8553 80.2118 31.5805 79.9371C31.5805 79.8455 31.5805 79.8455 31.489 79.7539C31.489 79.7539 31.6721 79.7539 32.1301 79.9371C32.4048 80.1203 32.8628 80.3034 33.4123 80.6698C36.2516 83.967 41.1057 89.5539 45.3188 98.1632Z" fill="#EAEEF9"/>
<path d="M88.0906 78.4707C88.0906 78.4707 87.999 78.6539 87.8158 79.0202C86.7168 81.0352 83.0532 87.7211 81.313 93.5828C81.2214 93.5828 81.2214 93.6744 81.1299 93.6744C81.1299 93.6744 81.0383 93.766 80.9467 93.766C79.2981 94.7734 77.1916 95.6893 76.2757 96.1473H76.1841C73.4364 97.4295 70.5056 98.2538 70.3224 98.2538C71.6963 93.766 73.7112 89.7361 76.5504 86.3473C77.1 85.7062 77.6495 85.0651 78.199 84.5155C78.2906 84.4239 78.3822 84.3324 78.4738 84.2408C80.8551 81.8595 83.328 80.3025 85.7093 79.295C85.984 79.2034 86.2588 79.0202 86.5336 78.9286C86.8083 78.7455 87.2663 78.6539 87.7242 78.4707C87.9074 78.5623 87.999 78.4707 88.0906 78.4707Z" fill="#D5DAE8"/>
<path d="M87.999 78.2891C87.999 78.2891 87.9074 78.3807 87.8158 78.6554C87.8158 78.747 87.7242 78.747 87.7242 78.8386C82.9616 83.0517 79.2065 90.104 76.8252 95.9656C76.642 96.0572 76.4589 96.1488 76.2757 96.2404H76.1841C76.0009 96.332 75.7261 96.4236 75.543 96.5152C75.6346 96.332 75.7261 96.2404 75.7261 96.2404C76.9168 93.3096 80.1224 84.975 85.7093 79.3881C85.8925 79.205 86.0756 79.0218 86.2588 78.8386C86.8999 78.6554 87.4495 78.4722 87.999 78.2891Z" fill="#EAEEF9"/>
<path d="M63.1785 70.502V73.7075H2.08904C1.17315 73.7075 0.440445 72.9748 0.440445 72.1505C0.440445 71.2347 1.17315 70.502 2.08904 70.502H63.1785Z" fill="#919AAC"/>
<path d="M101.096 23.1504L101.096 47.2382C101.096 47.9709 100.547 48.5204 99.814 48.5204C99.0813 48.5204 98.5317 47.9709 98.5317 47.2382L98.5317 23.1504L101.096 23.1504Z" fill="#CED7E2"/>
<path d="M113.369 22.3272C113.735 22.602 113.552 23.2431 113.003 23.2431L101.188 23.2431L98.4401 23.2431L98.4401 13.3516L113.003 13.3516C113.461 13.3516 113.735 13.9011 113.369 14.2674L109.522 17.473C108.973 17.931 108.973 18.7553 109.522 19.2132L113.369 22.3272Z" fill="#EAEEF9"/>
<path d="M96.6268 88.8858C98.4075 88.8858 99.851 87.4423 99.851 85.6616C99.851 83.881 98.4075 82.4375 96.6268 82.4375C94.8462 82.4375 93.4027 83.881 93.4027 85.6616C93.4027 87.4423 94.8462 88.8858 96.6268 88.8858Z" fill="#EAEEF9"/>
<path d="M7.64232 87.8619C9.9007 87.8619 11.7315 86.0311 11.7315 83.7727C11.7315 81.5144 9.9007 79.6836 7.64232 79.6836C5.38394 79.6836 3.55316 81.5144 3.55316 83.7727C3.55316 86.0311 5.38394 87.8619 7.64232 87.8619Z" fill="#EAEEF9"/>
<g filter="url(#filter0_d_1394_49251)">
<rect x="15.6483" y="42.0859" width="41.2699" height="28.4173" rx="3.1455" fill="url(#paint2_linear_1394_49251)"/>
</g>
<path d="M56.3401 43.1546L39.5664 55.5759C37.6159 57.0203 34.9505 57.0203 33 55.5759L16.2262 43.1546C16.7309 42.5044 17.5199 42.0859 18.4067 42.0859H54.1597C55.0465 42.0859 55.8355 42.5044 56.3401 43.1546Z" fill="#E0E4F0"/>
<path d="M97.444 8.97632L94.0438 0" stroke="#A6B0C1" stroke-width="1.96594"/>
<path d="M95.2655 12.3312L88.3973 9.95117" stroke="#A6B0C1" stroke-width="1.96594"/>
<path d="M101.462 7.61557L102.21 0.611328" stroke="#A6B0C1" stroke-width="1.96594"/>
</g>
<defs>
<filter id="filter0_d_1394_49251" x="-1.65201" y="33.4358" width="75.8705" height="63.0185" filterUnits="userSpaceOnUse" color-interpolation-filters="sRGB">
<feFlood flood-opacity="0" result="BackgroundImageFix"/>
<feColorMatrix in="SourceAlpha" type="matrix" values="0 0 0 0 0 0 0 0 0 0 0 0 0 0 0 0 0 0 127 0" result="hardAlpha"/>
<feOffset dy="8.65014"/>
<feGaussianBlur stdDeviation="8.65014"/>
<feColorMatrix type="matrix" values="0 0 0 0 0.397708 0 0 0 0 0.47749 0 0 0 0 0.575 0 0 0 0.27 0"/>
<feBlend mode="normal" in2="BackgroundImageFix" result="effect1_dropShadow_1394_49251"/>
<feBlend mode="normal" in="SourceGraphic" in2="effect1_dropShadow_1394_49251" result="shape"/>
</filter>
<linearGradient id="paint0_linear_1394_49251" x1="73.9597" y1="23.8357" x2="73.9597" y2="61.5043" gradientUnits="userSpaceOnUse">
<stop stop-color="#B0BACC"/>
<stop offset="1" stop-color="#969EAE"/>
</linearGradient>
<linearGradient id="paint1_linear_1394_49251" x1="61.7715" y1="47.2148" x2="42.8986" y2="48.0941" gradientUnits="userSpaceOnUse">
<stop stop-color="#42465A"/>
<stop offset="1" stop-color="#575E84" stop-opacity="0"/>
</linearGradient>
<linearGradient id="paint2_linear_1394_49251" x1="36.2698" y1="41.4286" x2="36.2698" y2="70.8096" gradientUnits="userSpaceOnUse">
<stop stop-color="#FDFEFF"/>
<stop offset="0.9964" stop-color="#ECF0F5"/>
</linearGradient>
<clipPath id="clip0_1394_49251">
<rect width="113.119" height="100" fill="white" transform="translate(0.440445)"/>
</clipPath>
</defs>
</svg>
