<svg width="18" height="19" viewBox="0 0 18 19" fill="none" xmlns="http://www.w3.org/2000/svg">
<path d="M10.6667 17.4993H7.33333M14 6.66602C14 5.33993 13.4732 4.06816 12.5355 3.13048C11.5978 2.1928 10.3261 1.66602 9 1.66602C7.67391 1.66602 6.40214 2.1928 5.46446 3.13048C4.52678 4.06816 4 5.33993 4 6.66602C4 9.24117 3.35039 11.0043 2.62472 12.1705C2.0126 13.1542 1.70654 13.6461 1.71777 13.7833C1.73019 13.9352 1.76238 13.9932 1.88481 14.084C1.99538 14.166 2.49382 14.166 3.49071 14.166H14.5093C15.5062 14.166 16.0046 14.166 16.1152 14.084C16.2376 13.9932 16.2698 13.9352 16.2822 13.7833C16.2934 13.6461 15.9874 13.1542 15.3753 12.1705C14.6496 11.0043 14 9.24117 14 6.66602Z" stroke="#315BF3" stroke-width="1.66667" stroke-linecap="round" stroke-linejoin="round"/>
</svg>
