<svg width="20" height="20" viewBox="0 0 20 20" fill="none" xmlns="http://www.w3.org/2000/svg">
<path d="M8.03754 5.09375L7.53138 6.46163C6.86766 8.25527 6.5358 9.15211 5.88157 9.80639C5.22734 10.4606 4.3305 10.7924 2.53683 11.4562L1.16895 11.9623L2.53683 12.4685C4.3305 13.1323 5.22734 13.4641 5.88157 14.1183C6.5358 14.7726 6.86766 15.6694 7.53138 17.463L8.03754 18.8309L8.54366 17.463C9.20746 15.6694 9.53931 14.7726 10.1935 14.1183C10.8478 13.4641 11.7446 13.1323 13.5382 12.4685L14.9061 11.9623L13.5382 11.4562C11.7446 10.7924 10.8478 10.4606 10.1935 9.80639C9.53931 9.15211 9.20746 8.25527 8.54366 6.46163L8.03754 5.09375Z" stroke="#667085" stroke-width="1.66667" stroke-linecap="round" stroke-linejoin="round"/>
<path d="M15.8874 1.16895L15.6704 1.75518C15.386 2.52389 15.2438 2.90826 14.9634 3.18864C14.683 3.46902 14.2987 3.61125 13.53 3.8957L12.9437 4.11263L13.53 4.32956C14.2987 4.61401 14.683 4.75624 14.9634 5.03662C15.2438 5.317 15.386 5.70137 15.6704 6.47008L15.8874 7.05632L16.1043 6.47008C16.3888 5.70137 16.531 5.317 16.8114 5.03661C17.0917 4.75624 17.4761 4.61401 18.2448 4.32956L18.8311 4.11263L18.2448 3.8957C17.4761 3.61125 17.0917 3.46902 16.8114 3.18864C16.531 2.90826 16.3888 2.52389 16.1043 1.75518L15.8874 1.16895Z" stroke="#667085" stroke-width="1.32" stroke-linecap="round" stroke-linejoin="round"/>
</svg>
