<svg width="16" height="16" viewBox="0 0 16 16" fill="none" xmlns="http://www.w3.org/2000/svg">
<path d="M8.00001 2.99967C8.46025 2.99967 8.83334 2.62658 8.83334 2.16634C8.83334 1.7061 8.46025 1.33301 8.00001 1.33301C7.53977 1.33301 7.16668 1.7061 7.16668 2.16634C7.16668 2.62658 7.53977 2.99967 8.00001 2.99967Z" stroke="#667085" stroke-width="1.66667" stroke-linecap="round" stroke-linejoin="round"/>
<path d="M8.00001 8.83301C8.46025 8.83301 8.83334 8.45991 8.83334 7.99967C8.83334 7.53944 8.46025 7.16634 8.00001 7.16634C7.53977 7.16634 7.16668 7.53944 7.16668 7.99967C7.16668 8.45991 7.53977 8.83301 8.00001 8.83301Z" stroke="#667085" stroke-width="1.66667" stroke-linecap="round" stroke-linejoin="round"/>
<path d="M8.00001 14.6663C8.46025 14.6663 8.83334 14.2932 8.83334 13.833C8.83334 13.3728 8.46025 12.9997 8.00001 12.9997C7.53977 12.9997 7.16668 13.3728 7.16668 13.833C7.16668 14.2932 7.53977 14.6663 8.00001 14.6663Z" stroke="#667085" stroke-width="1.66667" stroke-linecap="round" stroke-linejoin="round"/>
<path d="M13.8333 2.99967C14.2936 2.99967 14.6667 2.62658 14.6667 2.16634C14.6667 1.7061 14.2936 1.33301 13.8333 1.33301C13.3731 1.33301 13 1.7061 13 2.16634C13 2.62658 13.3731 2.99967 13.8333 2.99967Z" stroke="#667085" stroke-width="1.66667" stroke-linecap="round" stroke-linejoin="round"/>
<path d="M13.8333 8.83301C14.2936 8.83301 14.6667 8.45991 14.6667 7.99967C14.6667 7.53944 14.2936 7.16634 13.8333 7.16634C13.3731 7.16634 13 7.53944 13 7.99967C13 8.45991 13.3731 8.83301 13.8333 8.83301Z" stroke="#667085" stroke-width="1.66667" stroke-linecap="round" stroke-linejoin="round"/>
<path d="M13.8333 14.6663C14.2936 14.6663 14.6667 14.2932 14.6667 13.833C14.6667 13.3728 14.2936 12.9997 13.8333 12.9997C13.3731 12.9997 13 13.3728 13 13.833C13 14.2932 13.3731 14.6663 13.8333 14.6663Z" stroke="#667085" stroke-width="1.66667" stroke-linecap="round" stroke-linejoin="round"/>
<path d="M2.16668 2.99967C2.62691 2.99967 3.00001 2.62658 3.00001 2.16634C3.00001 1.7061 2.62691 1.33301 2.16668 1.33301C1.70644 1.33301 1.33334 1.7061 1.33334 2.16634C1.33334 2.62658 1.70644 2.99967 2.16668 2.99967Z" stroke="#667085" stroke-width="1.66667" stroke-linecap="round" stroke-linejoin="round"/>
<path d="M2.16668 8.83301C2.62691 8.83301 3.00001 8.45991 3.00001 7.99967C3.00001 7.53944 2.62691 7.16634 2.16668 7.16634C1.70644 7.16634 1.33334 7.53944 1.33334 7.99967C1.33334 8.45991 1.70644 8.83301 2.16668 8.83301Z" stroke="#667085" stroke-width="1.66667" stroke-linecap="round" stroke-linejoin="round"/>
<path d="M2.16668 14.6663C2.62691 14.6663 3.00001 14.2932 3.00001 13.833C3.00001 13.3728 2.62691 12.9997 2.16668 12.9997C1.70644 12.9997 1.33334 13.3728 1.33334 13.833C1.33334 14.2932 1.70644 14.6663 2.16668 14.6663Z" stroke="#667085" stroke-width="1.66667" stroke-linecap="round" stroke-linejoin="round"/>
</svg>
