<svg width="44" height="44" viewBox="0 0 44 44" fill="none" xmlns="http://www.w3.org/2000/svg">
<path d="M0 22C0 9.84974 9.84974 0 22 0C34.1503 0 44 9.84974 44 22C44 34.1503 34.1503 44 22 44C9.84974 44 0 34.1503 0 22Z" fill="#EAEDFE"/>
<path d="M30.3333 20.3346H13.6666M21.1666 23.668H17M13.6666 18.8346L13.6666 25.168C13.6666 26.1014 13.6666 26.5681 13.8483 26.9246C14.0081 27.2382 14.263 27.4932 14.5766 27.653C14.9332 27.8346 15.3999 27.8346 16.3333 27.8346L27.6666 27.8346C28.6 27.8346 29.0668 27.8346 29.4233 27.653C29.7369 27.4932 29.9919 27.2382 30.1516 26.9246C30.3333 26.5681 30.3333 26.1014 30.3333 25.168V18.8346C30.3333 17.9012 30.3333 17.4345 30.1516 17.078C29.9919 16.7644 29.7369 16.5094 29.4233 16.3496C29.0668 16.168 28.6 16.168 27.6666 16.168L16.3333 16.168C15.3999 16.168 14.9332 16.168 14.5766 16.3496C14.263 16.5094 14.0081 16.7644 13.8483 17.078C13.6666 17.4345 13.6666 17.9012 13.6666 18.8346Z" stroke="#233FAD" stroke-width="1.5625" stroke-linecap="round" stroke-linejoin="round"/>
</svg>
