<svg width="44" height="44" viewBox="0 0 44 44" fill="none" xmlns="http://www.w3.org/2000/svg">
<path d="M0 22C0 9.84974 9.84974 0 22 0C34.1503 0 44 9.84974 44 22C44 34.1503 34.1503 44 22 44C9.84974 44 0 34.1503 0 22Z" fill="#EAEDFE"/>
<g clip-path="url(#clip0_1232_51839)">
<path d="M20.4175 15.3346C21.4696 14.3036 22.9105 13.668 24.5 13.668C27.7216 13.668 30.3333 16.2796 30.3333 19.5013C30.3333 21.0907 29.6976 22.5317 28.6666 23.5838M18.25 22.8346L19.5 22.0013V26.5846M18.25 26.5846H20.75M25.3333 24.5013C25.3333 27.723 22.7216 30.3346 19.5 30.3346C16.2783 30.3346 13.6666 27.723 13.6666 24.5013C13.6666 21.2796 16.2783 18.668 19.5 18.668C22.7216 18.668 25.3333 21.2796 25.3333 24.5013Z" stroke="#233FAD" stroke-width="1.66667" stroke-linecap="round" stroke-linejoin="round"/>
</g>
<defs>
<clipPath id="clip0_1232_51839">
<rect width="20" height="20" fill="white" transform="translate(12 12)"/>
</clipPath>
</defs>
</svg>
