<svg width="44" height="44" viewBox="0 0 44 44" fill="none" xmlns="http://www.w3.org/2000/svg">
<rect width="44" height="44" rx="22" fill="#EAEDFE"/>
<path d="M22 24.5C19.3583 24.5 17.009 25.7755 15.5134 27.755C15.1915 28.181 15.0305 28.394 15.0358 28.6819C15.0398 28.9043 15.1795 29.1849 15.3545 29.3222C15.581 29.5 15.8949 29.5 16.5227 29.5H27.4773C28.1051 29.5 28.4191 29.5 28.6456 29.3222C28.8206 29.1849 28.9602 28.9043 28.9643 28.6819C28.9696 28.394 28.8086 28.181 28.4867 27.755C26.991 25.7755 24.6418 24.5 22 24.5Z" stroke="#233FAD" stroke-width="1.5625" stroke-linecap="round" stroke-linejoin="round"/>
<path d="M22 22C24.0711 22 25.75 20.3211 25.75 18.25C25.75 16.1789 24.0711 14.5 22 14.5C19.929 14.5 18.25 16.1789 18.25 18.25C18.25 20.3211 19.929 22 22 22Z" stroke="#233FAD" stroke-width="1.5625" stroke-linecap="round" stroke-linejoin="round"/>
</svg>
