<svg width="40" height="40" viewBox="0 0 40 40" fill="none" xmlns="http://www.w3.org/2000/svg">
<rect width="40" height="40" rx="20" fill="#EAEDFE"/>
<path d="M25.8337 28.3327H14.167C13.504 28.3327 12.8681 28.0693 12.3992 27.6005C11.9304 27.1316 11.667 26.4957 11.667 25.8327V12.4993C11.667 12.2783 11.7548 12.0664 11.9111 11.9101C12.0674 11.7538 12.2793 11.666 12.5003 11.666H24.167C24.388 11.666 24.6 11.7538 24.7562 11.9101C24.9125 12.0664 25.0003 12.2783 25.0003 12.4993V22.4993H28.3337V25.8327C28.3337 26.4957 28.0703 27.1316 27.6014 27.6005C27.1326 28.0693 26.4967 28.3327 25.8337 28.3327ZM25.0003 24.166V25.8327C25.0003 26.0537 25.0881 26.2657 25.2444 26.4219C25.4007 26.5782 25.6126 26.666 25.8337 26.666C26.0547 26.666 26.2666 26.5782 26.4229 26.4219C26.5792 26.2657 26.667 26.0537 26.667 25.8327V24.166H25.0003ZM23.3337 26.666V13.3327H13.3337V25.8327C13.3337 26.0537 13.4215 26.2657 13.5777 26.4219C13.734 26.5782 13.946 26.666 14.167 26.666H23.3337ZM15.0003 15.8327H21.667V17.4993H15.0003V15.8327ZM15.0003 19.166H21.667V20.8327H15.0003V19.166ZM15.0003 22.4993H19.167V24.166H15.0003V22.4993Z" fill="#2D53DD"/>
</svg>
