<svg width="36" height="36" viewBox="0 0 36 36" fill="none" xmlns="http://www.w3.org/2000/svg">
<rect width="36" height="36" rx="18" fill="#EAECF0"/>
<path d="M22.1668 16.3333V14.6667C22.1668 12.3655 20.3013 10.5 18.0002 10.5C15.699 10.5 13.8335 12.3655 13.8335 14.6667V16.3333M18.0002 20.0833V21.75M15.3335 25.5H20.6668C22.067 25.5 22.767 25.5 23.3018 25.2275C23.7722 24.9878 24.1547 24.6054 24.3943 24.135C24.6668 23.6002 24.6668 22.9001 24.6668 21.5V20.3333C24.6668 18.9332 24.6668 18.2331 24.3943 17.6984C24.1547 17.228 23.7722 16.8455 23.3018 16.6058C22.767 16.3333 22.067 16.3333 20.6668 16.3333H15.3335C13.9334 16.3333 13.2333 16.3333 12.6985 16.6058C12.2281 16.8455 11.8457 17.228 11.606 17.6984C11.3335 18.2331 11.3335 18.9332 11.3335 20.3333V21.5C11.3335 22.9001 11.3335 23.6002 11.606 24.135C11.8457 24.6054 12.2281 24.9878 12.6985 25.2275C13.2333 25.5 13.9334 25.5 15.3335 25.5Z" stroke="#667085" stroke-width="2" stroke-linecap="round" stroke-linejoin="round"/>
</svg>
