<svg width="36" height="36" viewBox="0 0 36 36" fill="none" xmlns="http://www.w3.org/2000/svg">
<rect width="36" height="36" rx="18" fill="#ABEFC6"/>
<g clip-path="url(#clip0_1136_262533)">
<path d="M26.3332 17.2375V18.0041C26.3321 19.8011 25.7503 21.5497 24.6743 22.989C23.5983 24.4283 22.0859 25.4812 20.3626 25.9907C18.6394 26.5002 16.7976 26.439 15.1119 25.8163C13.4262 25.1935 11.987 24.0425 11.009 22.535C10.0309 21.0275 9.56633 19.2442 9.68457 17.451C9.80281 15.6579 10.4975 13.9511 11.6651 12.585C12.8326 11.219 14.4105 10.2669 16.1633 9.87091C17.9162 9.47488 19.7501 9.65607 21.3915 10.3875M26.3332 11.3327L17.9998 19.6743L15.4998 17.1743" stroke="#17B26A" stroke-width="2" stroke-linecap="round" stroke-linejoin="round"/>
</g>
<defs>
<clipPath id="clip0_1136_262533">
<rect width="20" height="20" fill="white" transform="translate(8 8)"/>
</clipPath>
</defs>
</svg>
