<svg width="40" height="40" viewBox="0 0 40 40" fill="none" xmlns="http://www.w3.org/2000/svg">
<rect width="40" height="40" rx="20" fill="#EAEDFE"/>
<path d="M25.8333 27.5V22.5M23.3333 25H28.3333M20 22.5H16.6666C15.1135 22.5 14.3369 22.5 13.7243 22.7537C12.9076 23.092 12.2587 23.741 11.9204 24.5577C11.6666 25.1703 11.6666 25.9469 11.6666 27.5M22.9166 12.7423C24.1382 13.2368 25 14.4344 25 15.8333C25 17.2322 24.1382 18.4299 22.9166 18.9244M21.25 15.8333C21.25 17.6743 19.7576 19.1667 17.9166 19.1667C16.0757 19.1667 14.5833 17.6743 14.5833 15.8333C14.5833 13.9924 16.0757 12.5 17.9166 12.5C19.7576 12.5 21.25 13.9924 21.25 15.8333Z" stroke="#2D53DD" stroke-width="2" stroke-linecap="round" stroke-linejoin="round"/>
</svg>
