<svg width="44" height="44" viewBox="0 0 44 44" fill="none" xmlns="http://www.w3.org/2000/svg">
<rect width="44" height="44" rx="22" fill="#EAEDFE"/>
<path d="M29.5 29.5H15.8333C15.3666 29.5 15.1333 29.5 14.955 29.4092C14.7982 29.3293 14.6707 29.2018 14.5908 29.045C14.5 28.8667 14.5 28.6334 14.5 28.1667V14.5M29.5 17.8333L24.9714 22.3619C24.8064 22.5269 24.7239 22.6094 24.6288 22.6404C24.5451 22.6675 24.4549 22.6675 24.3712 22.6404C24.2761 22.6094 24.1936 22.5269 24.0286 22.3619L22.4714 20.8047C22.3064 20.6397 22.2239 20.5572 22.1288 20.5263C22.0451 20.4991 21.9549 20.4991 21.8712 20.5263C21.7761 20.5572 21.6936 20.6397 21.5286 20.8047L17.8333 24.5M29.5 17.8333H26.1667M29.5 17.8333V21.1667" stroke="#233FAD" stroke-width="1.5625" stroke-linecap="round" stroke-linejoin="round"/>
</svg>
