<svg width="44" height="44" viewBox="0 0 44 44" fill="none" xmlns="http://www.w3.org/2000/svg">
<path d="M0 22C0 9.84974 9.84974 0 22 0C34.1503 0 44 9.84974 44 22C44 34.1503 34.1503 44 22 44C9.84974 44 0 34.1503 0 22Z" fill="#FFFAEB"/>
<path d="M29.0442 23.1414C28.8127 25.3163 27.5804 27.3544 25.5412 28.5317C22.1533 30.4877 17.8212 29.3269 15.8652 25.939L15.6569 25.5782M14.9551 21.653C15.1867 19.4781 16.419 17.44 18.4581 16.2627C21.846 14.3067 26.1781 15.4674 28.1341 18.8553L28.3425 19.2162M14.911 27.4522L15.5211 25.1755L17.7978 25.7855M26.202 19.0088L28.4787 19.6189L29.0888 17.3422" stroke="#B54708" stroke-width="1.5" stroke-linecap="round" stroke-linejoin="round"/>
</svg>
