<svg width="18" height="20" viewBox="0 0 18 20" fill="none" xmlns="http://www.w3.org/2000/svg">
<path d="M9 13.3338V10.0005M9 6.66714H9.00833M1.5 6.61835L1.5 13.3826C1.5 13.6681 1.5 13.8109 1.54207 13.9382C1.57929 14.0509 1.64013 14.1543 1.72053 14.2415C1.8114 14.3401 1.93621 14.4095 2.18581 14.5481L8.35248 17.9741C8.58881 18.1054 8.70698 18.171 8.83212 18.1968C8.94288 18.2195 9.05712 18.2195 9.16788 18.1968C9.29302 18.171 9.41119 18.1054 9.64752 17.9741L15.8142 14.5481C16.0638 14.4095 16.1886 14.3401 16.2795 14.2415C16.3599 14.1543 16.4207 14.0509 16.4579 13.9382C16.5 13.8109 16.5 13.6681 16.5 13.3826V6.61835C16.5 6.33281 16.5 6.19004 16.4579 6.06271C16.4207 5.95007 16.3599 5.84666 16.2795 5.75942C16.1886 5.66081 16.0638 5.59147 15.8142 5.4528L9.64752 2.02688C9.41119 1.89558 9.29302 1.82993 9.16788 1.80419C9.05712 1.78141 8.94288 1.78141 8.83212 1.80419C8.70698 1.82993 8.58881 1.89558 8.35248 2.02688L2.18581 5.4528C1.93621 5.59147 1.8114 5.66081 1.72053 5.75942C1.64013 5.84666 1.57929 5.95007 1.54207 6.06271C1.5 6.19004 1.5 6.33281 1.5 6.61835Z" stroke="url(#paint0_linear_1772_3338)" stroke-width="1.66667" stroke-linecap="round" stroke-linejoin="round"/>
<defs>
<linearGradient id="paint0_linear_1772_3338" x1="1.49977" y1="18.2137" x2="17.859" y2="3.27535" gradientUnits="userSpaceOnUse">
<stop stop-color="#AD00FE"/>
<stop offset="1" stop-color="#00E0EE"/>
</linearGradient>
</defs>
</svg>
