<svg width="84" height="85" viewBox="0 0 84 85" fill="none" xmlns="http://www.w3.org/2000/svg">
<circle cx="40.995" cy="34.8238" r="32.8736" fill="#F2F4F7"/>
<path d="M77.9556 21.2583C79.5109 21.2583 80.7717 19.9975 80.7717 18.4421C80.7717 16.8868 79.5109 15.626 77.9556 15.626C76.4002 15.626 75.1394 16.8868 75.1394 18.4421C75.1394 19.9975 76.4002 21.2583 77.9556 21.2583Z" fill="#F2F4F7"/>
<path d="M82.0768 10.2683C83.139 10.2683 84 9.40728 84 8.34511C84 7.28293 83.139 6.42188 82.0768 6.42188C81.0146 6.42188 80.1536 7.28293 80.1536 8.34511C80.1536 9.40728 81.0146 10.2683 82.0768 10.2683Z" fill="#F2F4F7"/>
<path d="M12.0505 7.14343C14.0231 7.14343 15.6222 5.54432 15.6222 3.57172C15.6222 1.59911 14.0231 0 12.0505 0C10.0779 0 8.47876 1.59911 8.47876 3.57172C8.47876 5.54432 10.0779 7.14343 12.0505 7.14343Z" fill="#F2F4F7"/>
<path d="M53.7077 16.9143H36.196V10.2686H59.151C59.1932 10.2686 59.2354 10.2686 59.2776 10.2686C62.8643 10.3532 65.7759 13.3163 65.7759 16.9143H58.1805" fill="#D0D5DD"/>
<g filter="url(#filter0_d_1067_7746)">
<path d="M59.784 10.2686C58.4337 10.3532 57.1678 10.9035 56.2816 11.8347C56.1973 11.9194 56.1129 12.0041 56.0285 12.1311C55.2267 13.0623 54.636 14.2899 54.636 15.6021V55.1379C54.636 58.8206 51.6822 61.7837 48.0111 61.7837H15.7728V15.3058C15.8572 13.9512 16.3636 12.7237 17.2497 11.8347C18.2202 10.8612 19.5283 10.2686 21.0052 10.2686H53.4545H59.6152C59.6574 10.2686 59.6996 10.2686 59.784 10.2686Z" fill="url(#paint0_linear_1067_7746)"/>
</g>
<path d="M48.2221 19.3265H38.6434C38.3059 19.3265 38.0105 19.0302 38.0105 18.6916C38.0105 18.3529 38.3059 18.0566 38.6434 18.0566H48.2221C48.5597 18.0566 48.8551 18.3529 48.8551 18.6916C48.8551 19.0302 48.6019 19.3265 48.2221 19.3265Z" fill="#D0D5DD"/>
<path d="M34.1283 19.3265H21.6381C21.3005 19.3265 21.0051 19.0302 21.0051 18.6916C21.0051 18.3529 21.3005 18.0566 21.6381 18.0566H34.1705C34.5081 18.0566 34.8034 18.3529 34.8034 18.6916C34.8034 19.0302 34.5081 19.3265 34.1283 19.3265Z" fill="#D0D5DD"/>
<path d="M42.1458 25.5922H29.6978C29.3602 25.5922 29.0648 25.2958 29.0648 24.9572C29.0648 24.6186 29.3602 24.3223 29.6978 24.3223H42.1458C42.4834 24.3223 42.7787 24.6186 42.7787 24.9572C42.8209 25.2958 42.5256 25.5922 42.1458 25.5922Z" fill="#D0D5DD"/>
<path d="M25.6891 25.5922H21.6382C21.3006 25.5922 21.0052 25.2958 21.0052 24.9572C21.0052 24.6186 21.3006 24.3223 21.6382 24.3223H25.6891C26.0267 24.3223 26.322 24.6186 26.322 24.9572C26.322 25.2958 26.0267 25.5922 25.6891 25.5922Z" fill="#98A2B3"/>
<path d="M48.2221 31.8568H40.5845C40.2469 31.8568 39.9515 31.5605 39.9515 31.2219C39.9515 30.8832 40.2469 30.5869 40.5845 30.5869H48.2221C48.5597 30.5869 48.855 30.8832 48.855 31.2219C48.855 31.5605 48.6019 31.8568 48.2221 31.8568Z" fill="#98A2B3"/>
<path d="M36.9134 31.8568H21.6382C21.3006 31.8568 21.0052 31.5605 21.0052 31.2219C21.0052 30.8832 21.3006 30.5869 21.6382 30.5869H36.9134C37.251 30.5869 37.5464 30.8832 37.5464 31.2219C37.5464 31.5605 37.2932 31.8568 36.9134 31.8568Z" fill="#D0D5DD"/>
<path d="M42.1458 38.1215H33.7487C33.4111 38.1215 33.1157 37.8251 33.1157 37.4865C33.1157 37.1479 33.4111 36.8516 33.7487 36.8516H42.1458C42.4834 36.8516 42.7788 37.1479 42.7788 37.4865C42.821 37.8251 42.5256 38.1215 42.1458 38.1215Z" fill="#D0D5DD"/>
<path d="M30.0774 38.1215H21.6381C21.3005 38.1215 21.0051 37.8251 21.0051 37.4865C21.0051 37.1479 21.3005 36.8516 21.6381 36.8516H30.1196C30.4572 36.8516 30.7526 37.1479 30.7526 37.4865C30.7526 37.8251 30.4572 38.1215 30.0774 38.1215Z" fill="#98A2B3"/>
<path d="M48.222 44.3861H42.3567C42.0191 44.3861 41.7238 44.0898 41.7238 43.7512C41.7238 43.4125 42.0191 43.1162 42.3567 43.1162H48.222C48.5596 43.1162 48.855 43.4125 48.855 43.7512C48.855 44.0898 48.6018 44.3861 48.222 44.3861Z" fill="#D0D5DD"/>
<path d="M38.5591 44.3861H28.7273C28.3897 44.3861 28.0944 44.0898 28.0944 43.7512C28.0944 43.4125 28.3897 43.1162 28.7273 43.1162H38.5591C38.8967 43.1162 39.1921 43.4125 39.1921 43.7512C39.1921 44.0898 38.8967 44.3861 38.5591 44.3861Z" fill="#98A2B3"/>
<path d="M25.056 44.3861H21.6381C21.3005 44.3861 21.0051 44.0898 21.0051 43.7512C21.0051 43.4125 21.3005 43.1162 21.6381 43.1162H25.056C25.3936 43.1162 25.689 43.4125 25.689 43.7512C25.689 44.0898 25.3936 44.3861 25.056 44.3861Z" fill="#D0D5DD"/>
<path d="M42.1458 50.6507H36.3226C35.9851 50.6507 35.6897 50.3544 35.6897 50.0158C35.6897 49.6772 35.9851 49.3809 36.3226 49.3809H42.1458C42.4834 49.3809 42.7787 49.6772 42.7787 50.0158C42.8209 50.3544 42.5256 50.6507 42.1458 50.6507Z" fill="#D0D5DD"/>
<path d="M32.4827 50.6507H21.6382C21.3006 50.6507 21.0052 50.3544 21.0052 50.0158C21.0052 49.6772 21.3006 49.3809 21.6382 49.3809H32.4827C32.8203 49.3809 33.1157 49.6772 33.1157 50.0158C33.1157 50.3544 32.8203 50.6507 32.4827 50.6507Z" fill="#98A2B3"/>
<path d="M33.8331 56.5352H42.3568C42.3568 57.9744 42.9475 59.2866 43.8759 60.2178C44.8042 61.1914 46.1123 61.7417 47.547 61.7417H9.19019C7.7555 61.7417 6.44741 61.1491 5.51908 60.2178C4.59075 59.2866 4 57.9744 4 56.5352H29.2336C29.2336 56.5352 33.9174 56.5775 33.8331 56.5352Z" fill="#D0D5DD"/>
<path d="M70.4257 52.4805L65.0979 47.1569L66.3193 45.9355L71.6429 51.2633L70.4257 52.4805Z" fill="#475467"/>
<path d="M72.2777 54.3539L68.1924 50.2685C67.8512 49.9274 67.8512 49.3714 68.1924 49.0303C68.5335 48.6891 69.0895 48.6891 69.4306 49.0303L73.516 53.1156C73.8571 53.4568 73.8571 54.0127 73.516 54.3539C73.1748 54.695 72.6189 54.695 72.2777 54.3539Z" fill="#475467"/>
<path d="M71.9871 54.6153L66.7309 49.3591C66.6087 49.237 66.6087 49.039 66.7309 48.9127L68.0744 47.5691C68.1966 47.447 68.3945 47.447 68.5209 47.5691L73.7771 52.8253C73.8992 52.9475 73.8992 53.1454 73.7771 53.2718L72.4335 54.6153C72.3072 54.7375 72.1092 54.7375 71.9871 54.6153Z" fill="#667085"/>
<path d="M59.0667 30.0029C53.4905 30.0029 48.9713 34.5221 48.9713 40.0984C48.9713 45.6704 53.4905 50.1938 59.0625 50.1938C64.6388 50.1938 69.158 45.6746 69.158 40.0984C69.158 34.5221 64.6388 30.0029 59.0667 30.0029ZM59.0667 48.3238C54.5897 48.3238 50.9634 44.6386 50.9634 40.0942C50.9634 35.5497 54.5897 31.8687 59.0667 31.8687C63.5438 31.8687 67.17 35.5539 67.17 40.0984C67.17 44.6428 63.5396 48.3238 59.0667 48.3238Z" fill="#667085"/>
<defs>
<filter id="filter0_d_1067_7746" x="0.661726" y="2.713" width="74.2333" height="81.7369" filterUnits="userSpaceOnUse" color-interpolation-filters="sRGB">
<feFlood flood-opacity="0" result="BackgroundImageFix"/>
<feColorMatrix in="SourceAlpha" type="matrix" values="0 0 0 0 0 0 0 0 0 0 0 0 0 0 0 0 0 0 127 0" result="hardAlpha"/>
<feOffset dy="7.55555"/>
<feGaussianBlur stdDeviation="7.55555"/>
<feColorMatrix type="matrix" values="0 0 0 0 0.4 0 0 0 0 0.427451 0 0 0 0 0.501961 0 0 0 0.25 0"/>
<feBlend mode="normal" in2="BackgroundImageFix" result="effect1_dropShadow_1067_7746"/>
<feBlend mode="normal" in="SourceGraphic" in2="effect1_dropShadow_1067_7746" result="shape"/>
</filter>
<linearGradient id="paint0_linear_1067_7746" x1="37.7641" y1="9.07696" x2="37.7641" y2="62.339" gradientUnits="userSpaceOnUse">
<stop stop-color="#FDFEFF"/>
<stop offset="0.9964" stop-color="#ECF0F5"/>
</linearGradient>
</defs>
</svg>
