<svg width="14" height="14" viewBox="0 0 14 14" fill="none" xmlns="http://www.w3.org/2000/svg">
<path d="M6.1247 7.8751L12.2497 1.7501M6.19912 8.06647L7.73219 12.0086C7.86724 12.3559 7.93477 12.5296 8.03207 12.5803C8.11642 12.6242 8.2169 12.6243 8.3013 12.5804C8.39866 12.5298 8.4664 12.3563 8.60186 12.0092L12.4462 2.15797C12.5685 1.84461 12.6297 1.68793 12.5962 1.58782C12.5672 1.50087 12.4989 1.43264 12.412 1.40359C12.3119 1.37015 12.1552 1.43129 11.8418 1.55358L1.99065 5.39794C1.64352 5.53341 1.46996 5.60114 1.41938 5.6985C1.37553 5.7829 1.37559 5.88338 1.41954 5.96773C1.47023 6.06503 1.64388 6.13256 1.99116 6.26761L5.93333 7.80068C6.00382 7.82809 6.03907 7.8418 6.06875 7.86297C6.09506 7.88174 6.11807 7.90474 6.13683 7.93105C6.158 7.96073 6.17171 7.99598 6.19912 8.06647Z" stroke="white" stroke-width="1.4" stroke-linecap="round" stroke-linejoin="round"/>
</svg>
