<svg width="16" height="16" viewBox="0 0 16 16" fill="none" xmlns="http://www.w3.org/2000/svg">
<g clip-path="url(#clip0_1394_49340)">
<path d="M8.00004 9.9987C9.10461 9.9987 10 9.10327 10 7.9987C10 6.89413 9.10461 5.9987 8.00004 5.9987C6.89547 5.9987 6.00004 6.89413 6.00004 7.9987C6.00004 9.10327 6.89547 9.9987 8.00004 9.9987Z" stroke="#101828" stroke-width="1.25" stroke-linecap="round" stroke-linejoin="round"/>
<path d="M12.4849 9.81688C12.4042 9.99968 12.3801 10.2025 12.4158 10.3991C12.4514 10.5957 12.5452 10.7771 12.6849 10.9199L12.7213 10.9563C12.834 11.0688 12.9234 11.2025 12.9844 11.3497C13.0454 11.4968 13.0768 11.6546 13.0768 11.8139C13.0768 11.9731 13.0454 12.1309 12.9844 12.278C12.9234 12.4252 12.834 12.5589 12.7213 12.6714C12.6087 12.7841 12.475 12.8735 12.3278 12.9345C12.1807 12.9955 12.023 13.0269 11.8637 13.0269C11.7044 13.0269 11.5467 12.9955 11.3995 12.9345C11.2524 12.8735 11.1187 12.7841 11.0061 12.6714L10.9697 12.6351C10.8269 12.4953 10.6455 12.4016 10.4489 12.366C10.2523 12.3303 10.0495 12.3544 9.86671 12.4351C9.68745 12.5119 9.53458 12.6395 9.42689 12.8021C9.31921 12.9647 9.26143 13.1552 9.26065 13.3502V13.4532C9.26065 13.7747 9.13294 14.083 8.90563 14.3103C8.67831 14.5377 8.37 14.6654 8.04853 14.6654C7.72705 14.6654 7.41874 14.5377 7.19143 14.3103C6.96411 14.083 6.8364 13.7747 6.8364 13.4532V13.3987C6.83171 13.1981 6.76678 13.0035 6.65005 12.8403C6.53332 12.6771 6.37018 12.5528 6.18186 12.4835C5.99906 12.4029 5.79629 12.3788 5.59968 12.4145C5.40308 12.4501 5.22166 12.5438 5.07883 12.6835L5.04247 12.7199C4.92989 12.8326 4.79621 12.922 4.64906 12.983C4.50191 13.044 4.34418 13.0754 4.18489 13.0754C4.0256 13.0754 3.86787 13.044 3.72072 12.983C3.57357 12.922 3.43989 12.8326 3.32731 12.7199C3.21461 12.6073 3.12521 12.4737 3.06421 12.3265C3.00321 12.1794 2.97181 12.0216 2.97181 11.8623C2.97181 11.703 3.00321 11.5453 3.06421 11.3982C3.12521 11.251 3.21461 11.1173 3.32731 11.0048L3.36368 10.9684C3.5034 10.8256 3.59712 10.6441 3.63277 10.4475C3.66842 10.2509 3.64435 10.0482 3.56368 9.86537C3.48685 9.68611 3.35929 9.53323 3.19669 9.42555C3.03409 9.31787 2.84355 9.26008 2.64853 9.2593H2.5455C2.22402 9.2593 1.91571 9.1316 1.6884 8.90428C1.46108 8.67697 1.33337 8.36866 1.33337 8.04718C1.33337 7.72571 1.46108 7.4174 1.6884 7.19008C1.91571 6.96277 2.22402 6.83506 2.5455 6.83506H2.60004C2.80064 6.83037 2.9952 6.76544 3.1584 6.64871C3.32161 6.53197 3.44593 6.36884 3.51519 6.18052C3.59587 5.99772 3.61993 5.79494 3.58429 5.59834C3.54864 5.40174 3.45491 5.22032 3.31519 5.07749L3.27883 5.04112C3.16613 4.92855 3.07673 4.79487 3.01573 4.64772C2.95473 4.50057 2.92333 4.34284 2.92333 4.18355C2.92333 4.02426 2.95473 3.86653 3.01573 3.71938C3.07673 3.57223 3.16613 3.43854 3.27883 3.32597C3.3914 3.21327 3.52509 3.12387 3.67223 3.06287C3.81938 3.00187 3.97711 2.97047 4.1364 2.97047C4.2957 2.97047 4.45343 3.00187 4.60057 3.06287C4.74772 3.12387 4.88141 3.21327 4.99398 3.32597L5.03034 3.36233C5.17318 3.50205 5.3546 3.59578 5.5512 3.63143C5.7478 3.66708 5.95058 3.64301 6.13337 3.56233H6.18186C6.36111 3.48551 6.51399 3.35794 6.62167 3.19534C6.72936 3.03274 6.78714 2.84221 6.78792 2.64718V2.54415C6.78792 2.22268 6.91563 1.91437 7.14294 1.68705C7.37026 1.45974 7.67857 1.33203 8.00004 1.33203C8.32152 1.33203 8.62982 1.45974 8.85714 1.68705C9.08446 1.91437 9.21216 2.22268 9.21216 2.54415V2.5987C9.21294 2.79372 9.27073 2.98426 9.37841 3.14686C9.48609 3.30946 9.63897 3.43702 9.81822 3.51385C10.001 3.59453 10.2038 3.61859 10.4004 3.58294C10.597 3.5473 10.7784 3.45357 10.9213 3.31385L10.9576 3.27749C11.0702 3.16479 11.2039 3.07538 11.351 3.01438C11.4982 2.95338 11.6559 2.92199 11.8152 2.92199C11.9745 2.92199 12.1322 2.95338 12.2794 3.01438C12.4265 3.07538 12.5602 3.16479 12.6728 3.27749C12.7855 3.39006 12.8749 3.52374 12.9359 3.67089C12.9969 3.81804 13.0283 3.97577 13.0283 4.13506C13.0283 4.29435 12.9969 4.45208 12.9359 4.59923C12.8749 4.74638 12.7855 4.88006 12.6728 4.99264L12.6364 5.029C12.4967 5.17184 12.403 5.35325 12.3673 5.54986C12.3317 5.74646 12.3557 5.94923 12.4364 6.13203V6.18052C12.5132 6.35977 12.6408 6.51265 12.8034 6.62033C12.966 6.72801 13.1565 6.7858 13.3516 6.78658H13.4546C13.7761 6.78658 14.0844 6.91428 14.3117 7.1416C14.539 7.36892 14.6667 7.67722 14.6667 7.9987C14.6667 8.32017 14.539 8.62848 14.3117 8.8558C14.0844 9.08311 13.7761 9.21082 13.4546 9.21082H13.4C13.205 9.2116 13.0145 9.26939 12.8519 9.37707C12.6893 9.48475 12.5617 9.63763 12.4849 9.81688Z" stroke="#101828" stroke-width="1.25" stroke-linecap="round" stroke-linejoin="round"/>
</g>
<defs>
<clipPath id="clip0_1394_49340">
<rect width="16" height="16" fill="white"/>
</clipPath>
</defs>
</svg>
