<svg width="21" height="20" viewBox="0 0 21 20" fill="none" xmlns="http://www.w3.org/2000/svg">
<path d="M7.65833 11.2577L13.35 14.5743M13.3417 5.42435L7.65833 8.74102M18 4.16602C18 5.54673 16.8807 6.66602 15.5 6.66602C14.1193 6.66602 13 5.54673 13 4.16602C13 2.7853 14.1193 1.66602 15.5 1.66602C16.8807 1.66602 18 2.7853 18 4.16602ZM8 9.99935C8 11.3801 6.88071 12.4993 5.5 12.4993C4.11929 12.4993 3 11.3801 3 9.99935C3 8.61864 4.11929 7.49935 5.5 7.49935C6.88071 7.49935 8 8.61864 8 9.99935ZM18 15.8327C18 17.2134 16.8807 18.3327 15.5 18.3327C14.1193 18.3327 13 17.2134 13 15.8327C13 14.452 14.1193 13.3327 15.5 13.3327C16.8807 13.3327 18 14.452 18 15.8327Z" stroke="#344054" stroke-width="1.66667" stroke-linecap="round" stroke-linejoin="round"/>
</svg>
