<svg width="16" height="16" viewBox="0 0 16 16" fill="none" xmlns="http://www.w3.org/2000/svg">
<path d="M0.5 1.3275C0.5 0.870833 0.870833 0.5 1.3275 0.5H14.6725C15.1292 0.5 15.5 0.870833 15.5 1.3275V14.6725C15.4998 14.8919 15.4125 15.1022 15.2574 15.2574C15.1022 15.4125 14.8919 15.4998 14.6725 15.5H1.3275C1.1081 15.4998 0.897751 15.4125 0.742613 15.2574C0.587474 15.1022 0.500221 14.8919 0.5 14.6725V1.3275ZM2.16667 2.16667V13.8333H13.8333V2.16667H2.16667ZM6.85167 5.0125L10.9175 7.7225C10.9632 7.75293 11.0007 7.79418 11.0267 7.84259C11.0526 7.89101 11.0662 7.94508 11.0662 8C11.0662 8.05492 11.0526 8.10899 11.0267 8.15741C11.0007 8.20582 10.9632 8.24707 10.9175 8.2775L6.85083 10.9875C6.80069 11.0207 6.74249 11.0398 6.68239 11.0426C6.6223 11.0455 6.56256 11.032 6.50951 11.0036C6.45645 10.9753 6.41207 10.9331 6.38105 10.8815C6.35003 10.83 6.33354 10.771 6.33333 10.7108V5.28917C6.33344 5.22888 6.34991 5.16974 6.38097 5.11807C6.41202 5.06639 6.45652 5.02411 6.50971 4.99572C6.56289 4.96733 6.62279 4.9539 6.683 4.95685C6.74322 4.95981 6.80151 4.97904 6.85167 5.0125Z" fill="#344054"/>
</svg>
